<?xml version="1.0" encoding="UTF-8"?>
<svg version="1.1" xmlns="http://www.w3.org/2000/svg" width="1280" height="1280">
<path d="M0 0 C422.4 0 844.8 0 1280 0 C1280 422.4 1280 844.8 1280 1280 C857.6 1280 435.2 1280 0 1280 C0 857.6 0 435.2 0 0 Z " fill="#EFEFEF" transform="translate(0,0)"/>
<path d="M0 0 C0.81082031 -0.01933594 1.62164062 -0.03867188 2.45703125 -0.05859375 C9.39871086 1.20262701 13.9628603 5.82472113 18.625 10.75 C21.992694 14.25922873 25.37621483 17.65121668 29.06640625 20.82421875 C34.26957247 25.31103861 39.02099353 30.22242328 43.83203125 35.12109375 C47.83294254 39.16589072 51.92432041 42.99904656 56.23632812 46.70898438 C60.19745999 50.21809519 63.84205696 54.05320553 67.54296875 57.83203125 C70.62311632 60.95092282 73.73564038 63.95664144 77.0625 66.8125 C82.72503764 71.6951343 87.87992005 77.08485456 93.12109375 82.41015625 C97.35217757 86.68238513 101.64745783 90.76591345 106.20898438 94.68164062 C110.62884778 98.60410578 114.69331006 102.90698602 118.83203125 107.12109375 C122.19078124 110.51668561 125.56602424 113.82167769 129.1875 116.9375 C134.35310744 121.38185252 139.06042293 126.26257088 143.83203125 131.12109375 C147.17026885 134.49594822 150.52217539 137.78224627 154.125 140.875 C159.77028782 145.73205688 164.90088231 151.10615329 170.12109375 156.41015625 C173.70656059 160.03048987 177.28691892 163.58857054 181.15625 166.90625 C187.0243736 171.94359239 192.34233362 177.54922504 197.765625 183.0546875 C202.14748124 187.47686757 206.58126429 191.72819612 211.30712891 195.77978516 C214.48035726 198.57726899 217.41821366 201.60228754 220.375 204.625 C224.16203457 208.49481128 227.93387225 212.07497594 232.1875 215.4375 C233.8834451 217.08223539 235.53873123 218.74664164 237.1875 220.4375 C240.45345462 223.73401936 243.72716823 227.02281038 247 230.3125 C247.86431641 231.18519531 248.72863281 232.05789063 249.61914062 232.95703125 C254.06801166 237.42269048 258.57443474 241.72449853 263.3581543 245.82861328 C266.27492958 248.39388074 268.97418241 251.16055633 271.6875 253.9375 C275.05465321 257.34692275 278.39537838 260.72186911 282.0625 263.8125 C289.79756533 270.37157039 296.72899303 277.92007003 303.84765625 285.1328125 C306.14869825 287.39928125 308.51594643 289.55083509 310.9375 291.6875 C316.73879304 296.87494534 322.19419628 302.36744491 327.625 307.9375 C329.84319603 310.10159368 332.11283894 312.14023547 334.4375 314.1875 C340.17376913 319.30363193 345.55948486 324.75291068 350.94628906 330.23339844 C354.25293533 333.58016267 357.57953543 336.83105358 361.1484375 339.8984375 C366.55606735 344.55231673 371.47797484 349.68173721 376.4765625 354.765625 C380.66574632 358.99799628 384.91757095 363.05447325 389.46704102 366.89916992 C392.92295199 369.98923592 396.91929609 373.70904096 397.390625 378.50390625 C397.64165792 391.8714095 391.88517573 399.93620216 382.875 409.3125 C378.44554725 413.9520277 374.10711624 418.6354966 369.90454102 423.48193359 C367.11356891 426.66061788 364.21242816 429.73348856 361.3125 432.8125 C356.61202869 437.82546802 351.96082074 442.87413777 347.37890625 447.99609375 C341.37405906 454.6859859 335.26717709 461.28340024 329.1394043 467.8605957 C324.69685268 472.62944002 320.29386518 477.4124893 316.03125 482.34375 C310.34719511 488.7985242 304.42534316 495.050694 298.546875 501.328125 C290.69826672 509.69801823 290.69826672 509.69801823 283.08984375 518.28515625 C279.82416509 521.98000007 276.4411414 525.56753081 273.06811523 529.16430664 C270.23493396 532.19469913 267.45497435 535.25850642 264.734375 538.390625 C261.23159975 542.41649169 257.60316576 546.3101685 253.9375 550.1875 C247.63039563 556.88704642 241.3907148 563.64173931 235.1875 570.4375 C234.25298335 571.45607718 233.31808088 572.47430052 232.3828125 573.4921875 C228.14956582 578.09996715 223.92715915 582.71615042 219.75 587.375 C215.75052419 591.83402061 211.69317008 596.23706383 207.61157227 600.62084961 C204.96157346 603.47688413 202.36573327 606.36946012 199.8125 609.3125 C196.08973898 613.5861766 192.21588216 617.7041221 188.3125 621.8125 C183.12314201 627.2809455 178.02876227 632.78006318 173.1796875 638.5546875 C169.58684127 641.95027942 166.11226551 643.32006946 161.25 643.9375 C153.37290479 643.68296801 145.02846194 640.36519179 138.06640625 636.87109375 C135.30910352 635.49805426 132.77373341 634.63368237 129.8125 633.8125 C123.23681336 631.85634608 116.8513315 629.4939525 110.4375 627.0625 C103.66740681 624.4965332 96.90125513 621.94013171 90.0625 619.5625 C82.58974311 616.95519478 75.14756648 614.26503073 67.71295166 611.5512085 C66.38048329 611.06524 65.04760784 610.58038594 63.71429443 610.09674072 C57.14468935 607.71248776 50.6738716 605.26457941 44.3203125 602.35351562 C40.29113673 600.62303629 36.10944776 599.33881666 31.9375 598 C22.75550572 594.99409491 13.73946187 591.72624179 4.8046875 588.04296875 C-3.3567366 584.70260187 -11.58602399 581.79207171 -19.96704102 579.04785156 C-26.7478615 576.81938401 -33.42757073 574.39147611 -40.09375 571.84375 C-43.79629436 570.44362818 -47.51444567 569.12154041 -51.25 567.8125 C-55.10267892 566.45119103 -58.85395546 565.02713355 -62.5625 563.3125 C-66.34105529 561.56693364 -70.1500971 560.34971687 -74.16015625 559.24609375 C-77.77665664 558.14356712 -81.28076272 556.78348749 -84.8125 555.4375 C-86.15707488 554.93621814 -87.50212287 554.43620335 -88.84765625 553.9375 C-90.19010417 553.4375 -91.53255208 552.9375 -92.875 552.4375 C-93.54337891 552.19 -94.21175781 551.9425 -94.90039062 551.6875 C-98.13174684 550.48162946 -101.3069174 549.22455264 -104.4765625 547.859375 C-107.34354162 546.6373839 -110.15556037 545.620124 -113.125 544.6875 C-118.43482634 542.95531073 -123.61981006 540.9870894 -128.8125 538.9375 C-133.77864546 536.97873122 -138.72891455 535.0755442 -143.8125 533.4375 C-148.77241047 531.83885117 -153.59547338 529.98129141 -158.4375 528.0625 C-164.56899387 525.63565253 -170.72849059 523.41241385 -177 521.375 C-204.00450531 512.57333568 -204.00450531 512.57333568 -209.625 504.6875 C-210.22957031 503.86765625 -210.83414062 503.0478125 -211.45703125 502.203125 C-213.76079749 497.50264519 -213.21018482 493.77476984 -211.74609375 488.8515625 C-211.25987401 487.58368569 -210.7605241 486.32078708 -210.25 485.0625 C-209.9826001 484.37768555 -209.7152002 483.69287109 -209.43969727 482.98730469 C-208.57875251 480.7977967 -207.69853939 478.61696428 -206.8125 476.4375 C-206.51859375 475.71079102 -206.2246875 474.98408203 -205.921875 474.23535156 C-203.91634624 469.28970005 -201.87098302 464.36129796 -199.8125 459.4375 C-195.95381687 450.19791667 -192.12567382 440.94593409 -188.3125 431.6875 C-188.01280304 430.96004578 -187.71310608 430.23259155 -187.40432739 429.48309326 C-182.28485949 417.05316226 -177.20843882 404.60609346 -172.1640625 392.14550781 C-169.51731147 385.61046044 -166.84357364 379.08801604 -164.1237793 372.58300781 C-162.63372491 369.00865281 -161.15706644 365.42886816 -159.68359375 361.84765625 C-159.40933563 361.18109009 -159.13507751 360.51452393 -158.85250854 359.82775879 C-158.28094668 358.43830164 -157.70945569 357.04881533 -157.13803101 355.65930176 C-152.27290771 343.82945662 -147.39584146 332.00466429 -142.5 320.1875 C-138.58917525 310.74717855 -134.69716647 301.29953212 -130.84057617 291.83691406 C-129.03437114 287.40822545 -127.2106203 282.98755679 -125.3671875 278.57421875 C-122.83293591 272.50177879 -120.35017424 266.40921067 -117.875 260.3125 C-113.20932601 248.83927914 -108.50376002 237.38286392 -103.7835083 225.93200684 C-100.09351279 216.98043928 -96.41086354 208.02603558 -92.75 199.0625 C-90.25276537 192.94821698 -87.73779941 186.84238192 -85.1875 180.75 C-83.2103452 175.98685434 -81.26288234 171.21165888 -79.3125 166.4375 C-70.49173412 144.86340684 -70.49173412 144.86340684 -67.375 138.1875 C-64.96098786 132.94825598 -62.93293061 127.59779549 -60.95532227 122.18261719 C-58.7277251 116.0969529 -56.18011 110.18426234 -53.4375 104.3125 C-51.64793069 100.39200457 -50.01561006 96.44899725 -48.4921875 92.41796875 C-45.86244717 85.52967009 -43.10460232 78.69883551 -40.3125 71.875 C-39.85230469 70.74642578 -39.39210938 69.61785156 -38.91796875 68.45507812 C-36.76622467 63.18482044 -34.59983001 57.92159087 -32.3984375 52.671875 C-30.68433329 48.57229783 -29.01594212 44.45721811 -27.37591553 40.32765198 C-26.20460166 37.38201131 -25.0218764 34.44100745 -23.83837891 31.50024414 C-23.23643109 29.99667963 -22.63944185 28.49112073 -22.04736328 26.98364258 C-11.43860547 0.01801355 -11.43860547 0.01801355 0 0 Z " fill="#EFEFEF" transform="translate(471.8125,117.5625)"/>
<path d="M0 0 C1.20849609 -0.00386719 1.20849609 -0.00386719 2.44140625 -0.0078125 C4.4375 0.125 4.4375 0.125 5.4375 1.125 C6.99536803 1.42131765 8.5591035 1.68705019 10.125 1.9375 C15.78469682 3.03709824 19.56146553 4.87375863 23.3125 9.375 C25.18306921 13.94750251 25.37794448 17.80319805 23.53662109 22.34912109 C20.23846865 28.83678411 16.52240545 34.95943532 12.5625 41.0625 C11.97597656 41.97451172 11.38945313 42.88652344 10.78515625 43.82617188 C9.60024121 45.66864966 8.41363534 47.51004114 7.2253418 49.3503418 C2.39377366 56.84874026 -2.36796484 64.39168533 -7.125 71.9375 C-13.35246281 81.80691204 -19.61754772 91.65223199 -25.88720703 101.49487305 C-30.62186144 108.92804587 -35.35506687 116.36204817 -40.0625 123.8125 C-40.56241455 124.60358154 -41.0623291 125.39466309 -41.57739258 126.2097168 C-45.82416811 132.93826462 -50.03857902 139.68678564 -54.25 146.4375 C-58.8944775 153.88053561 -63.57280214 161.29636623 -68.3359375 168.6640625 C-72.61635064 175.2977256 -76.80427431 181.99090976 -81.01416016 188.66943359 C-83.52792699 192.65610449 -86.04536188 196.64045719 -88.5625 200.625 C-89.56251838 202.20832172 -90.56251836 203.79165507 -91.5625 205.375 C-97.5625 214.875 -103.5625 224.375 -109.5625 233.875 C-110.05733887 234.6585083 -110.55217773 235.4420166 -111.06201172 236.24926758 C-112.06359035 237.83507325 -113.06521808 239.42084791 -114.06689453 241.0065918 C-116.54314184 244.92684757 -119.01857701 248.84761107 -121.4921875 252.76953125 C-126.87148874 261.29614383 -132.2692646 269.81056729 -137.6875 278.3125 C-141.6729015 284.56672208 -145.64293279 290.82929682 -149.5625 297.125 C-154.07478151 304.37273515 -158.65724231 311.57490554 -163.24560547 318.7746582 C-167.07186037 324.77956542 -170.88692159 330.79130958 -174.6875 336.8125 C-175.170979 337.57788086 -175.65445801 338.34326172 -176.15258789 339.13183594 C-178.68547531 343.14347578 -181.21167987 347.15917959 -183.73046875 351.1796875 C-186.23126069 355.16853166 -188.74787855 359.14682582 -191.28173828 363.11474609 C-192.39294404 364.85886889 -193.49246064 366.61042847 -194.58984375 368.36328125 C-197.96804052 373.53399059 -201.52461744 378.0764327 -207.5625 380.125 C-222.28750122 381.3693663 -239.09207224 368.80434144 -251.70492554 362.18597412 C-256.59705184 359.62217249 -261.5043743 357.08879298 -266.41796875 354.56640625 C-267.17612381 354.17720505 -267.93427887 353.78800385 -268.71540833 353.38700867 C-271.71413883 351.84823903 -274.71324968 350.31021352 -277.71279907 348.77304077 C-285.75949661 344.64824932 -293.78604603 340.48946342 -301.78125 336.265625 C-312.15803497 330.7866124 -322.60725561 325.45234685 -333.0625 320.125 C-344.31384466 314.39200962 -355.54697189 308.63177128 -366.71255493 302.73320007 C-373.88093567 298.94845346 -381.08370617 295.23295426 -388.29711914 291.53491211 C-392.06123045 289.60498393 -395.82345613 287.67138459 -399.5859375 285.73828125 C-400.34191223 285.34996124 -401.09788696 284.96164124 -401.87677002 284.56155396 C-408.68145367 281.06558566 -415.48155032 277.56079879 -422.27740479 274.04769897 C-423.97096471 273.17231373 -425.66491464 272.29768312 -427.35888672 271.4230957 C-432.97041607 268.52077037 -438.56913648 265.59649583 -444.15515137 262.64544678 C-454.61839033 257.11979227 -465.13924478 251.71280428 -475.68273926 246.34210205 C-480.63903311 243.81710448 -485.59306736 241.28768354 -490.546875 238.7578125 C-491.51429626 238.26376923 -492.48171753 237.76972595 -493.47845459 237.26071167 C-501.97903047 232.91706702 -510.45853894 228.53439542 -518.92773438 224.12988281 C-526.91840676 219.97443296 -534.9216999 215.84406558 -542.92996216 211.72265625 C-547.12710519 209.56230993 -551.32327365 207.40007124 -555.51951599 205.23797607 C-558.79069693 203.55258965 -562.06215392 201.86774668 -565.33447266 200.18457031 C-573.09214004 196.19315833 -580.83482855 192.17418578 -588.5625 188.125 C-589.55781738 187.60647461 -590.55313477 187.08794922 -591.57861328 186.55371094 C-594.37289224 185.09197329 -597.15660892 183.61201676 -599.9375 182.125 C-601.15046753 181.49392334 -601.15046753 181.49392334 -602.38793945 180.85009766 C-607.24403301 178.2182932 -610.48986659 175.7637237 -613.5625 171.125 C-614.75124935 166.95283604 -614.55674135 163.33499073 -613.5625 159.125 C-611.07387442 154.89326383 -608.07951222 151.53174286 -604.5625 148.125 C-604.02882813 147.60550781 -603.49515625 147.08601562 -602.9453125 146.55078125 C-598.91624206 143.3070381 -594.44101611 143.66643638 -589.5625 144.125 C-586.03861295 144.93025101 -582.66328063 146.0672286 -579.25 147.25 C-577.30390037 147.89738339 -575.35727344 148.54318356 -573.41015625 149.1875 C-572.43449707 149.51363281 -571.45883789 149.83976563 -570.45361328 150.17578125 C-566.05667651 151.61939636 -561.62541856 152.93890489 -557.1875 154.25 C-551.17208459 156.03688543 -545.17151677 157.86061694 -539.1875 159.75 C-533.36652091 161.58308651 -527.52116041 163.30516119 -521.6484375 164.96484375 C-505.43117015 169.55377291 -489.28078393 174.34017928 -473.2421875 179.51953125 C-464.3555424 182.37564657 -455.43815315 185.02480295 -446.4375 187.5 C-435.76226749 190.44077686 -425.23055224 193.73251239 -414.69921875 197.1484375 C-405.02992038 200.28020645 -395.29508135 203.19725533 -385.5625 206.125 C-383.91796538 206.62108259 -382.27343402 207.11717597 -380.62890625 207.61328125 C-372.33166242 210.1120359 -364.02589722 212.58129627 -355.71606445 215.0378418 C-346.0084084 217.90767574 -336.30713071 220.79506935 -326.625 223.75 C-325.2160144 224.17998291 -325.2160144 224.17998291 -323.77856445 224.61865234 C-322.85519287 224.90047363 -321.93182129 225.18229492 -320.98046875 225.47265625 C-308.28660843 229.34662431 -295.57688667 233.13325824 -282.79980469 236.72363281 C-274.46272059 239.09637623 -266.22409337 241.76287802 -257.99926758 244.49755859 C-250.42899213 247.07599048 -250.42899213 247.07599048 -242.5625 248.125 C-240.71750733 247.03121905 -240.71750733 247.03121905 -239.5 245.0625 C-236.14327463 240.73148699 -232.46787555 236.95292029 -228.5625 233.125 C-224.3502958 228.96086037 -220.28988733 224.77190867 -216.46484375 220.24609375 C-213.23886763 216.6491635 -209.75922515 213.30265814 -206.32446289 209.90649414 C-202.84616859 206.4522954 -199.55810171 202.91525657 -196.390625 199.171875 C-193.47411528 195.90638121 -190.33868723 192.85986677 -187.20458984 189.80419922 C-184.54229512 187.22560059 -184.54229512 187.22560059 -182.5625 184.125 C-181.9025 184.125 -181.2425 184.125 -180.5625 184.125 C-180.29824219 183.53404541 -180.03398438 182.94309082 -179.76171875 182.33422852 C-178.51903724 180.04493191 -177.23798057 178.5846374 -175.375 176.77734375 C-174.75882813 176.17212891 -174.14265625 175.56691406 -173.5078125 174.94335938 C-172.54488281 174.01233398 -172.54488281 174.01233398 -171.5625 173.0625 C-170.28941422 171.82392558 -169.01849068 170.58312384 -167.75 169.33984375 C-167.18667969 168.79448975 -166.62335938 168.24913574 -166.04296875 167.68725586 C-164.3481336 165.9872891 -164.3481336 165.9872891 -162.5625 163.125 C-161.9025 163.125 -161.2425 163.125 -160.5625 163.125 C-160.30815186 162.54395508 -160.05380371 161.96291016 -159.79174805 161.36425781 C-158.42976505 158.88320358 -156.9193556 157.26981897 -154.89453125 155.296875 C-154.16556641 154.57886719 -153.43660156 153.86085938 -152.68554688 153.12109375 C-151.92306641 152.37988281 -151.16058594 151.63867188 -150.375 150.875 C-145.40128839 146.01775865 -140.59260597 141.1235785 -136.0612793 135.84863281 C-133.76498756 133.20784121 -131.26529573 130.80356139 -128.75 128.375 C-126.85513476 126.42599575 -125.08547445 124.43341932 -123.3125 122.375 C-118.96440827 117.36866837 -114.2544796 112.76540911 -109.5234375 108.125 C-105.60263229 104.24960953 -101.90574905 100.27003915 -98.30859375 96.09375 C-95.37621633 92.78744526 -92.21666615 89.71781047 -89.0625 86.625 C-84.67334141 82.28268181 -80.41050844 77.93429499 -76.4296875 73.2109375 C-73.21694186 69.62180324 -69.74409761 66.2877509 -66.31982422 62.90185547 C-63.45643205 60.05826204 -60.67357823 57.20607231 -58.0625 54.125 C-54.39860259 49.80160106 -50.34878354 45.88562019 -46.32250977 41.90454102 C-42.85863554 38.46463479 -39.59125066 34.9394615 -36.43359375 31.21484375 C-33.42345234 27.85278601 -30.1830664 24.72343839 -26.97119141 21.55541992 C-24.14556688 18.75422315 -21.44444585 15.9176072 -18.875 12.875 C-7.89483251 -0.02534457 -7.89483251 -0.02534457 0 0 Z " fill="#020202" transform="translate(885.5625,532.875)"/>
<path d="M0 0 C0.81082031 -0.01933594 1.62164062 -0.03867188 2.45703125 -0.05859375 C9.39871086 1.20262701 13.9628603 5.82472113 18.625 10.75 C21.992694 14.25922873 25.37621483 17.65121668 29.06640625 20.82421875 C34.26957247 25.31103861 39.02099353 30.22242328 43.83203125 35.12109375 C47.83294254 39.16589072 51.92432041 42.99904656 56.23632812 46.70898438 C60.19745999 50.21809519 63.84205696 54.05320553 67.54296875 57.83203125 C70.62311632 60.95092282 73.73564038 63.95664144 77.0625 66.8125 C82.72503764 71.6951343 87.87992005 77.08485456 93.12109375 82.41015625 C97.35217757 86.68238513 101.64745783 90.76591345 106.20898438 94.68164062 C110.62884778 98.60410578 114.69331006 102.90698602 118.83203125 107.12109375 C122.19078124 110.51668561 125.56602424 113.82167769 129.1875 116.9375 C134.35310744 121.38185252 139.06042293 126.26257088 143.83203125 131.12109375 C147.17026885 134.49594822 150.52217539 137.78224627 154.125 140.875 C159.77028782 145.73205688 164.90088231 151.10615329 170.12109375 156.41015625 C173.70656059 160.03048987 177.28691892 163.58857054 181.15625 166.90625 C187.0243736 171.94359239 192.34233362 177.54922504 197.765625 183.0546875 C202.14748124 187.47686757 206.58126429 191.72819612 211.30712891 195.77978516 C214.48035726 198.57726899 217.41821366 201.60228754 220.375 204.625 C224.16203457 208.49481128 227.93387225 212.07497594 232.1875 215.4375 C233.8834451 217.08223539 235.53873123 218.74664164 237.1875 220.4375 C240.45345462 223.73401936 243.72716823 227.02281038 247 230.3125 C247.86431641 231.18519531 248.72863281 232.05789063 249.61914062 232.95703125 C254.06801166 237.42269048 258.57443474 241.72449853 263.3581543 245.82861328 C266.27492958 248.39388074 268.97418241 251.16055633 271.6875 253.9375 C275.05465321 257.34692275 278.39537838 260.72186911 282.0625 263.8125 C289.79756533 270.37157039 296.72899303 277.92007003 303.84765625 285.1328125 C306.14869825 287.39928125 308.51594643 289.55083509 310.9375 291.6875 C316.73879304 296.87494534 322.19419628 302.36744491 327.625 307.9375 C329.84319603 310.10159368 332.11283894 312.14023547 334.4375 314.1875 C340.17376913 319.30363193 345.55948486 324.75291068 350.94628906 330.23339844 C354.25293533 333.58016267 357.57953543 336.83105358 361.1484375 339.8984375 C366.55606735 344.55231673 371.47797484 349.68173721 376.4765625 354.765625 C380.66574632 358.99799628 384.91757095 363.05447325 389.46704102 366.89916992 C392.92295199 369.98923592 396.91929609 373.70904096 397.390625 378.50390625 C397.64165792 391.8714095 391.88517573 399.93620216 382.875 409.3125 C378.44554725 413.9520277 374.10711624 418.6354966 369.90454102 423.48193359 C367.11356891 426.66061788 364.21242816 429.73348856 361.3125 432.8125 C356.61202869 437.82546802 351.96082074 442.87413777 347.37890625 447.99609375 C341.37405906 454.6859859 335.26717709 461.28340024 329.1394043 467.8605957 C324.69685268 472.62944002 320.29386518 477.4124893 316.03125 482.34375 C310.34719511 488.7985242 304.42534316 495.050694 298.546875 501.328125 C290.69826672 509.69801823 290.69826672 509.69801823 283.08984375 518.28515625 C279.82416509 521.98000007 276.4411414 525.56753081 273.06811523 529.16430664 C270.23493396 532.19469913 267.45497435 535.25850642 264.734375 538.390625 C261.23159975 542.41649169 257.60316576 546.3101685 253.9375 550.1875 C247.63039563 556.88704642 241.3907148 563.64173931 235.1875 570.4375 C234.25298335 571.45607718 233.31808088 572.47430052 232.3828125 573.4921875 C228.14956582 578.09996715 223.92715915 582.71615042 219.75 587.375 C215.75052419 591.83402061 211.69317008 596.23706383 207.61157227 600.62084961 C204.96157346 603.47688413 202.36573327 606.36946012 199.8125 609.3125 C196.08973898 613.5861766 192.21588216 617.7041221 188.3125 621.8125 C183.12314201 627.2809455 178.02876227 632.78006318 173.1796875 638.5546875 C169.58684127 641.95027942 166.11226551 643.32006946 161.25 643.9375 C153.37290479 643.68296801 145.02846194 640.36519179 138.06640625 636.87109375 C135.30910352 635.49805426 132.77373341 634.63368237 129.8125 633.8125 C123.23681336 631.85634608 116.8513315 629.4939525 110.4375 627.0625 C103.66740681 624.4965332 96.90125513 621.94013171 90.0625 619.5625 C82.58974311 616.95519478 75.14756648 614.26503073 67.71295166 611.5512085 C66.38048329 611.06524 65.04760784 610.58038594 63.71429443 610.09674072 C57.14468935 607.71248776 50.6738716 605.26457941 44.3203125 602.35351562 C40.29113673 600.62303629 36.10944776 599.33881666 31.9375 598 C22.75550572 594.99409491 13.73946187 591.72624179 4.8046875 588.04296875 C-3.3567366 584.70260187 -11.58602399 581.79207171 -19.96704102 579.04785156 C-26.7478615 576.81938401 -33.42757073 574.39147611 -40.09375 571.84375 C-43.79629436 570.44362818 -47.51444567 569.12154041 -51.25 567.8125 C-55.10267892 566.45119103 -58.85395546 565.02713355 -62.5625 563.3125 C-66.34105529 561.56693364 -70.1500971 560.34971687 -74.16015625 559.24609375 C-77.77665664 558.14356712 -81.28076272 556.78348749 -84.8125 555.4375 C-86.15707488 554.93621814 -87.50212287 554.43620335 -88.84765625 553.9375 C-90.19010417 553.4375 -91.53255208 552.9375 -92.875 552.4375 C-93.54337891 552.19 -94.21175781 551.9425 -94.90039062 551.6875 C-98.13174684 550.48162946 -101.3069174 549.22455264 -104.4765625 547.859375 C-107.34354162 546.6373839 -110.15556037 545.620124 -113.125 544.6875 C-118.43482634 542.95531073 -123.61981006 540.9870894 -128.8125 538.9375 C-133.77864546 536.97873122 -138.72891455 535.0755442 -143.8125 533.4375 C-148.77241047 531.83885117 -153.59547338 529.98129141 -158.4375 528.0625 C-164.56899387 525.63565253 -170.72849059 523.41241385 -177 521.375 C-204.00450531 512.57333568 -204.00450531 512.57333568 -209.625 504.6875 C-210.22957031 503.86765625 -210.83414062 503.0478125 -211.45703125 502.203125 C-213.76079749 497.50264519 -213.21018482 493.77476984 -211.74609375 488.8515625 C-211.25987401 487.58368569 -210.7605241 486.32078708 -210.25 485.0625 C-209.9826001 484.37768555 -209.7152002 483.69287109 -209.43969727 482.98730469 C-208.57875251 480.7977967 -207.69853939 478.61696428 -206.8125 476.4375 C-206.51859375 475.71079102 -206.2246875 474.98408203 -205.921875 474.23535156 C-203.91634624 469.28970005 -201.87098302 464.36129796 -199.8125 459.4375 C-195.95381687 450.19791667 -192.12567382 440.94593409 -188.3125 431.6875 C-188.01280304 430.96004578 -187.71310608 430.23259155 -187.40432739 429.48309326 C-182.28485949 417.05316226 -177.20843882 404.60609346 -172.1640625 392.14550781 C-169.51731147 385.61046044 -166.84357364 379.08801604 -164.1237793 372.58300781 C-162.63372491 369.00865281 -161.15706644 365.42886816 -159.68359375 361.84765625 C-159.40933563 361.18109009 -159.13507751 360.51452393 -158.85250854 359.82775879 C-158.28094668 358.43830164 -157.70945569 357.04881533 -157.13803101 355.65930176 C-152.27290771 343.82945662 -147.39584146 332.00466429 -142.5 320.1875 C-138.58917525 310.74717855 -134.69716647 301.29953212 -130.84057617 291.83691406 C-129.03437114 287.40822545 -127.2106203 282.98755679 -125.3671875 278.57421875 C-122.83293591 272.50177879 -120.35017424 266.40921067 -117.875 260.3125 C-113.20932601 248.83927914 -108.50376002 237.38286392 -103.7835083 225.93200684 C-100.09351279 216.98043928 -96.41086354 208.02603558 -92.75 199.0625 C-90.25276537 192.94821698 -87.73779941 186.84238192 -85.1875 180.75 C-83.2103452 175.98685434 -81.26288234 171.21165888 -79.3125 166.4375 C-70.49173412 144.86340684 -70.49173412 144.86340684 -67.375 138.1875 C-64.96098786 132.94825598 -62.93293061 127.59779549 -60.95532227 122.18261719 C-58.7277251 116.0969529 -56.18011 110.18426234 -53.4375 104.3125 C-51.64793069 100.39200457 -50.01561006 96.44899725 -48.4921875 92.41796875 C-45.86244717 85.52967009 -43.10460232 78.69883551 -40.3125 71.875 C-39.85230469 70.74642578 -39.39210938 69.61785156 -38.91796875 68.45507812 C-36.76622467 63.18482044 -34.59983001 57.92159087 -32.3984375 52.671875 C-30.68433329 48.57229783 -29.01594212 44.45721811 -27.37591553 40.32765198 C-26.20460166 37.38201131 -25.0218764 34.44100745 -23.83837891 31.50024414 C-23.23643109 29.99667963 -22.63944185 28.49112073 -22.04736328 26.98364258 C-11.43860547 0.01801355 -11.43860547 0.01801355 0 0 Z M5.1875 40.4375 C1.55755219 48.24586293 -1.82207515 56.14551404 -5.09692383 64.1081543 C-5.87580409 66.00195511 -6.6573768 67.89462647 -7.43945312 69.78710938 C-9.55952887 74.92477329 -11.66726668 80.06647853 -13.72558594 85.22924805 C-15.79204303 90.4036961 -17.91119469 95.55530147 -20.04296875 100.703125 C-20.43768875 101.65781677 -20.83240875 102.61250854 -21.23908997 103.59613037 C-22.4921854 106.6268111 -23.74601837 109.65718585 -25 112.6875 C-29.90835556 124.55057158 -34.81233122 136.41530678 -39.67578125 148.296875 C-40.03359177 149.17055725 -40.39140228 150.0442395 -40.76005554 150.94439697 C-42.84281943 156.0387476 -44.89987628 161.1426351 -46.93377686 166.25669861 C-48.5873034 170.36039498 -50.37994225 174.40371195 -52.15234375 178.45703125 C-53.55204 181.73900165 -54.82261975 185.06324565 -56.08984375 188.3984375 C-59.03014455 196.09129652 -62.2259175 203.66770583 -65.4375 211.25 C-66.30140848 213.29110512 -67.16465074 215.33248057 -68.02597046 217.37467957 C-68.80167772 219.21376211 -69.57971416 221.05186174 -70.35791016 222.88989258 C-71.37601389 225.37295156 -72.3491501 227.84695842 -73.28027344 230.36157227 C-74.83329655 234.54502553 -76.5443581 238.65123052 -78.2890625 242.7578125 C-78.6158902 243.53105865 -78.9427179 244.30430481 -79.27944946 245.10098267 C-79.97363934 246.7433263 -80.66846673 248.3854006 -81.3638916 250.02722168 C-83.17118308 254.29505986 -84.97272482 258.56532009 -86.7734375 262.8359375 C-87.12607666 263.67225708 -87.47871582 264.50857666 -87.84204102 265.37023926 C-92.55649935 276.56306515 -97.16591099 287.79854362 -101.6652832 299.07958984 C-103.74041298 304.26899344 -105.847768 309.44477805 -107.96484375 314.6171875 C-108.53785973 316.01821213 -108.53785973 316.01821213 -109.12245178 317.44754028 C-109.92478637 319.40895276 -110.72731461 321.37028602 -111.5300293 323.33154297 C-112.74390792 326.29761421 -113.95695692 329.26402377 -115.16992188 332.23046875 C-118.64108396 340.71624996 -122.11414006 349.20076692 -125.65161133 357.65917969 C-128.01198205 363.30818469 -130.34729117 368.96762016 -132.6875 374.625 C-132.94917969 375.25757721 -133.21085937 375.89015442 -133.48046875 376.54190063 C-138.15057898 387.83175889 -138.15057898 387.83175889 -142.8125 399.125 C-143.3075 400.32511719 -143.8025 401.52523438 -144.3125 402.76171875 C-145.40509212 405.43913851 -146.4810146 408.1206235 -147.546875 410.80859375 C-150.30530464 417.71840765 -153.19642765 424.57306066 -156.06838989 431.43621826 C-160.89273246 442.96813718 -165.70997242 454.49946789 -170.2878418 466.13208008 C-171.68202923 469.66399545 -173.11486603 473.16616592 -174.65625 476.63671875 C-174.94685303 477.2930127 -175.23745605 477.94930664 -175.53686523 478.62548828 C-176.30782336 480.34975759 -177.09271168 482.06778058 -177.87890625 483.78515625 C-179.13568799 486.49005485 -179.13568799 486.49005485 -177.8125 489.4375 C-175.52781593 490.37310378 -173.35809469 491.11978813 -171 491.8125 C-169.61215278 492.24640693 -168.2254383 492.68395251 -166.83984375 493.125 C-166.15132324 493.34414063 -165.46280273 493.56328125 -164.75341797 493.7890625 C-162.12954595 494.66566679 -159.6021423 495.71739183 -157.0625 496.8125 C-144.98890327 501.97533828 -132.56677714 506.23388345 -120.09130859 510.30834961 C-114.93896167 512.01006825 -109.97987782 513.99830294 -105 516.15625 C-100.9924112 517.76714354 -96.91876771 519.10262419 -92.8125 520.4375 C-86.73361782 522.41363827 -80.86867411 524.61315788 -75 527.15625 C-70.29705281 529.04665034 -65.48791972 530.59173779 -60.65625 532.11914062 C-56.40203867 533.48711619 -52.288063 535.04281991 -48.171875 536.78515625 C-41.22301977 539.72598748 -34.15510378 542.30563463 -27.0625 544.875 C-24.38239894 545.85042863 -21.70294386 546.82762663 -19.0234375 547.8046875 C-18.3796817 548.03912064 -17.7359259 548.27355377 -17.07266235 548.51509094 C-12.5986489 550.14569006 -8.1393665 551.81002898 -3.6875 553.5 C11.55256585 559.23998113 26.89398394 564.75693132 42.375 569.8125 C47.30056642 571.42138356 52.05308604 573.16057217 56.73828125 575.37890625 C60.96847094 577.20726575 65.34094024 578.64648237 69.69213867 580.15844727 C75.06389753 582.02874541 80.37434376 584.02389783 85.67578125 586.0859375 C95.25121472 589.7712545 104.86358623 593.39836719 114.625 596.5625 C118.38708958 597.7872462 121.9960158 599.17506163 125.625 600.75 C134.56974829 604.5732546 143.89653794 607.5682323 153.1875 610.4375 C153.89350342 610.66977295 154.59950684 610.9020459 155.3269043 611.14135742 C155.94090088 611.23908447 156.55489746 611.33681152 157.1875 611.4375 C159.65799992 609.61748294 159.65799992 609.61748294 162 607 C162.88429688 606.07058594 163.76859375 605.14117188 164.6796875 604.18359375 C167.24512641 601.37439818 169.78202231 598.55137768 172.25 595.65625 C173.8254354 593.85212236 175.42748405 592.09313235 177.0625 590.34375 C177.56724854 589.80218262 178.07199707 589.26061523 178.59204102 588.70263672 C179.60162987 587.62246186 180.61505557 586.54585842 181.63256836 585.47314453 C184.35303415 582.88883684 184.35303415 582.88883684 185.1875 579.4375 C185.8475 579.4375 186.5075 579.4375 187.1875 579.4375 C188.55407834 578.12515591 188.55407834 578.12515591 190 576.3125 C193.96204524 571.64442992 198.11605224 567.17866875 202.30395508 562.71435547 C205.12778114 559.69303799 207.89891448 556.63931214 210.609375 553.515625 C214.27662024 549.30072699 218.09183341 545.2392932 221.9375 541.1875 C232.21138656 530.3160325 242.2962554 519.28345094 252.25390625 508.12109375 C257.48031023 502.27868636 262.81477758 496.54502429 268.17456055 490.82543945 C271.06261414 487.73704939 273.92947864 484.64352483 276.6875 481.4375 C280.62979887 476.85482771 284.79619139 472.4805677 288.92919922 468.07080078 C292.98121727 463.742974 296.97377446 459.36874575 300.92578125 454.94921875 C306.13846414 449.16034984 311.45670323 443.46694717 316.74902344 437.75097656 C324.20217724 429.69911756 324.20217724 429.69911756 331.5625 421.5625 C335.41929566 417.25527566 339.3592099 413.0308267 343.3125 408.8125 C349.05232909 402.68337531 354.68618437 396.50484327 360 390 C362.1875 387.4375 362.1875 387.4375 364.1875 386.4375 C364.53078046 383.49569482 364.53078046 383.49569482 362.9296875 382.10546875 C362.31351563 381.61691406 361.69734375 381.12835938 361.0625 380.625 C356.85826112 377.11648037 353.02777843 373.3323989 349.1875 369.4375 C343.87583038 364.05174354 343.87583038 364.05174354 338.25 359 C333.48623086 354.97703297 329.17847111 350.47788095 324.81665039 346.02954102 C321.75321455 342.92401278 318.65605833 339.9338216 315.34375 337.09375 C309.44157254 332.00448156 304.07474255 326.36848865 298.609375 320.8203125 C294.23332245 316.40398953 289.80520613 312.15972242 285.0859375 308.11328125 C281.13768312 304.62809374 277.51501554 300.80348955 273.83203125 297.04296875 C270.74167429 293.91373937 267.61752952 290.89846844 264.28125 288.03125 C258.85836702 283.35526264 253.91530915 278.2118588 248.8984375 273.109375 C245.45193614 269.6273427 242.00346447 266.21903125 238.28125 263.03125 C232.16475846 257.77470083 226.62267086 251.91478235 220.96484375 246.17578125 C216.51452485 241.68659493 212.02472804 237.36287376 207.22460938 233.25195312 C202.11353941 228.69952359 197.41057037 223.69425326 192.609375 218.8203125 C188.20699331 214.3774181 183.75307796 210.09982778 179.00537109 206.02832031 C176.2092078 203.58139579 173.60352731 200.96121536 171 198.3125 C170.50564453 197.81363281 170.01128906 197.31476563 169.50195312 196.80078125 C167.19712663 194.47469812 164.89747324 192.14353623 162.59765625 189.8125 C160.39609016 187.64304752 158.13943886 185.59550974 155.8125 183.5625 C151.22722409 179.47144544 146.88568999 175.17847797 142.5625 170.8125 C138.24067865 166.44803085 133.91500891 162.20575149 129.21484375 158.24609375 C125.85206579 155.24615889 122.71973585 152.01103767 119.57348633 148.78637695 C116.27998033 145.43544856 112.80617101 142.44186081 109.1875 139.4375 C107.49652723 137.79549919 105.83385099 136.12423767 104.1875 134.4375 C101.08812673 131.30773345 97.98113412 128.1855547 94.875 125.0625 C94.05837891 124.2375 93.24175781 123.4125 92.40039062 122.5625 C88.04965406 118.19442983 83.63013655 113.99626508 78.95385742 109.97900391 C76.52712426 107.86118867 74.26023729 105.60592185 72 103.3125 C71.20207031 102.50554687 70.40414062 101.69859375 69.58203125 100.8671875 C68.79183594 100.06539062 68.00164062 99.26359375 67.1875 98.4375 C64.19110196 95.39954945 61.15519818 92.48851784 57.9375 89.6875 C52.20123087 84.57136807 46.81551514 79.12208932 41.42871094 73.64160156 C38.13011378 70.30298409 34.81303965 67.06053527 31.25 64.00390625 C25.62991469 59.16972129 20.54045984 53.79997798 15.37109375 48.49414062 C14.60152344 47.71361328 13.83195313 46.93308594 13.0390625 46.12890625 C12.34635254 45.41935791 11.65364258 44.70980957 10.93994141 43.97875977 C9.32616268 42.21736224 9.32616268 42.21736224 7.1875 42.4375 C7.1875 41.7775 7.1875 41.1175 7.1875 40.4375 C6.5275 40.4375 5.8675 40.4375 5.1875 40.4375 Z " fill="#030303" transform="translate(471.8125,117.5625)"/>
<path d="M0 0 C3.91432271 1.53904405 7.76000836 3.1902605 11.60595703 4.890625 C12.99558595 5.4908678 14.38580889 6.08973719 15.77661133 6.68725586 C19.75012691 8.40024455 23.7107788 10.14141595 27.66845703 11.890625 C29.17037598 12.55215576 29.17037598 12.55215576 30.70263672 13.22705078 C34.51530598 14.90960748 38.32141669 16.60582219 42.12158203 18.31640625 C45.83711497 19.96548089 49.58138595 21.49917745 53.36938477 22.97216797 C55.44958317 23.80318702 57.49005512 24.68467999 59.53173828 25.60546875 C64.15584049 27.67275913 68.80378308 29.68222826 73.45585632 31.68566895 C78.7397856 33.96197622 84.01692031 36.25362369 89.29083252 38.55303955 C92.77151005 40.06968857 96.25902676 41.56836427 99.75439453 43.05078125 C108.08339529 46.65309621 113.98563119 50.21083721 117.66845703 58.890625 C118.00439453 61.1875 118.00439453 61.1875 118.04345703 63.640625 C118.07181641 64.43984375 118.10017578 65.2390625 118.12939453 66.0625 C116.94168145 73.34982434 112.07653606 79.47542225 107.91845703 85.390625 C106.7581951 87.06282618 105.59941202 88.73605416 104.44189453 90.41015625 C103.83055664 91.29396973 103.21921875 92.1777832 102.58935547 93.08837891 C99.18828735 98.04992694 95.86951703 103.0661239 92.54345703 108.078125 C87.72130269 115.33522856 82.86218838 122.56036743 77.89941406 129.72192383 C72.97653957 136.8491664 68.1968995 144.07226002 63.41259766 151.29296875 C57.45954356 160.26136118 51.34649121 169.07529529 44.85595703 177.6640625 C43.52189183 179.76497376 43.52189183 179.76497376 43.61767578 181.89453125 C45.20416725 184.90827527 47.76469994 186.52617115 50.48095703 188.453125 C57.32214195 193.50374708 63.50414969 199.04453412 69.66845703 204.890625 C70.33619141 205.48230469 71.00392578 206.07398438 71.69189453 206.68359375 C81.47296192 215.645884 88.83086468 229.53743431 89.90673828 242.8359375 C90.17648998 254.39266808 87.5019548 262.82306267 79.93798828 271.6640625 C69.42894615 281.97413826 55.7188442 284.16757812 41.61108398 284.13500977 C34.89489899 284.03180837 29.06389613 282.98797454 22.66845703 280.890625 C21.02006411 280.3748575 19.37162209 279.85924692 17.72314453 279.34375 C8.40503537 276.37878258 -0.63662965 273.19202875 -9.40576172 268.83056641 C-11.73056639 267.69586839 -14.07684665 266.612261 -16.42529297 265.52734375 C-28.63930098 259.84746182 -40.40398533 253.62153195 -52.07373047 246.8984375 C-56.48536966 244.35734601 -60.94440637 241.93489207 -65.45654297 239.578125 C-82.14933595 230.78591017 -98.09800949 220.00779934 -113.33154297 208.890625 C-114.23453125 208.23707031 -114.23453125 208.23707031 -115.15576172 207.5703125 C-118.77146212 204.78631074 -120.78523015 202.18593837 -122.33154297 197.890625 C-122.73217696 193.32339751 -122.38652534 190.00058973 -120.33154297 185.890625 C-120.00154297 185.560625 -119.67154297 185.230625 -119.33154297 184.890625 C-119.23921378 183.41000055 -119.17227339 181.92777159 -119.11669922 180.4453125 C-118.5408516 174.28035559 -116.06356895 170.15288467 -112.76904297 165.015625 C-111.57520485 163.07701633 -110.38391901 161.13683423 -109.19482422 159.1953125 C-108.56398926 158.17405273 -107.9331543 157.15279297 -107.28320312 156.10058594 C-104.24051146 151.09616888 -101.3496888 146.00629571 -98.46118164 140.9119873 C-96.77038428 137.93080134 -95.07207575 134.9538988 -93.37451172 131.9765625 C-93.03749237 131.38508423 -92.70047302 130.79360596 -92.35324097 130.1842041 C-87.00689689 120.80566701 -81.59606201 111.46417164 -76.19482422 102.1171875 C-74.31119247 98.85538493 -72.43031976 95.59200656 -70.55029297 92.328125 C-64.52714583 81.87349593 -58.48637953 71.43010466 -52.39404297 61.015625 C-47.58619098 52.79619082 -42.8354908 44.54604368 -38.12005615 36.27340698 C-37.09216059 34.47173531 -36.06210934 32.67131519 -35.03125 30.87133789 C-32.10888408 25.76709679 -29.19593623 20.65924669 -26.34326172 15.515625 C-25.48539443 13.99467566 -24.62733952 12.47383213 -23.76904297 10.953125 C-23.2339209 9.96131226 -23.2339209 9.96131226 -22.68798828 8.94946289 C-17.28242666 -0.52286445 -10.27698905 -3.42214849 0 0 Z " fill="#030303" transform="translate(432.33154296875,827.109375)"/>
<path d="M0 0 C0.8863916 0.00161133 1.7727832 0.00322266 2.68603516 0.00488281 C9.20182097 0.12716619 14.51651419 0.97940973 20.1875 4.375 C21.26 5.014375 22.3325 5.65375 23.4375 6.3125 C24.79875 7.3334375 24.79875 7.3334375 26.1875 8.375 C27.1775 9.096875 28.1675 9.81875 29.1875 10.5625 C36.81366333 17.08777361 40.93228545 26.58652862 42.1875 36.375 C42.99177614 50.34567661 42.46224374 63.03219333 38.1875 76.375 C37.81671658 77.69655223 37.45091199 79.01951046 37.08984375 80.34375 C34.28934104 90.33015138 30.12695831 99.27970511 25.1875 108.375 C24.82076172 109.05626953 24.45402344 109.73753906 24.07617188 110.43945312 C9.68563685 137.04317266 -9.45885722 160.78313964 -29.76171875 183.10546875 C-31.66478088 185.21152418 -33.52403821 187.34820469 -35.375 189.5 C-38.37997932 192.95607321 -41.58163931 196.16307562 -44.84375 199.375 C-46.75236455 201.31391002 -48.53960552 203.31199551 -50.3125 205.375 C-58.7580968 215.10371468 -65.77780158 221.43505324 -78.8125 223.375 C-79.58335937 223.54128906 -80.35421875 223.70757813 -81.1484375 223.87890625 C-85.72468739 224.46389612 -88.09110101 223.86731214 -91.94921875 221.234375 C-94.81919246 218.88423105 -97.53269713 216.3732583 -100.23388672 213.83251953 C-102.50537885 211.73527115 -104.90139977 209.80879363 -107.3125 207.875 C-111.29636161 204.63486943 -115.22004454 201.33396992 -119.125 198 C-124.25995545 193.62023024 -129.5242863 189.43580038 -134.85375977 185.29614258 C-138.94557199 182.10111872 -142.84337039 178.74862138 -146.6875 175.2578125 C-149.719901 172.57101602 -152.90036455 170.08583377 -156.078125 167.57421875 C-159.20318367 165.06077871 -162.26005214 162.47567845 -165.3125 159.875 C-169.93471525 155.94067044 -174.61351985 152.09573343 -179.3671875 148.3203125 C-186.94310776 142.2934622 -194.3491447 136.08438671 -201.67504883 129.75805664 C-205.1393806 126.77627556 -208.65231498 123.88378491 -212.25 121.0625 C-222.53257162 112.93485675 -222.53257162 112.93485675 -224.8125 108.375 C-224.98796191 106.50532388 -225.07984858 104.62734841 -225.125 102.75 C-225.16238281 101.74710938 -225.19976563 100.74421875 -225.23828125 99.7109375 C-224.30582941 92.40530566 -219.85688361 86.73962901 -215.4375 81.0625 C-214.37150838 79.6673443 -213.30644444 78.27147941 -212.2421875 76.875 C-211.68499023 76.14667969 -211.12779297 75.41835938 -210.55371094 74.66796875 C-207.51366638 70.66458983 -204.53940944 66.6129241 -201.5625 62.5625 C-200.96332764 61.74813477 -200.36415527 60.93376953 -199.74682617 60.09472656 C-195.41469163 54.2030717 -191.09876428 48.30013003 -186.8125 42.375 C-186.32394531 41.70082031 -185.83539062 41.02664063 -185.33203125 40.33203125 C-174.29904639 25.93248587 -174.29904639 25.93248587 -164.8125 10.5625 C-161.9721512 6.0356941 -158.93899586 3.11726161 -153.640625 1.859375 C-148.27057695 1.45199204 -144.90640399 2.92115723 -140.83984375 6.3515625 C-136.79276256 10.39084585 -133.32616619 14.87387245 -129.8125 19.375 C-128.42166258 21.08740321 -127.02577865 22.79571931 -125.625 24.5 C-124.88636719 25.40234375 -124.14773438 26.3046875 -123.38671875 27.234375 C-122.52876426 28.28134706 -121.67067982 29.32821263 -120.8125 30.375 C-120.28994629 31.01244141 -119.76739258 31.64988281 -119.22900391 32.30664062 C-111.50018569 41.72869037 -103.73077951 51.11138174 -95.8125 60.375 C-94.74128906 61.63376953 -94.74128906 61.63376953 -93.6484375 62.91796875 C-93.02195312 63.64628906 -92.39546875 64.37460937 -91.75 65.125 C-91.22277344 65.73859375 -90.69554687 66.3521875 -90.15234375 66.984375 C-88.84178903 68.49944451 -88.84178903 68.49944451 -86.8125 69.375 C-86.59464844 68.55257812 -86.37679687 67.73015625 -86.15234375 66.8828125 C-84.47630051 62.49480424 -82.10448875 59.04736318 -79.375 55.25 C-78.84076416 54.50153809 -78.30652832 53.75307617 -77.75610352 52.98193359 C-72.89388783 46.28517674 -67.59957521 40.28751759 -61.8125 34.375 C-60.50539063 32.99248047 -60.50539063 32.99248047 -59.171875 31.58203125 C-50.02519271 22.1010404 -39.7982789 13.06137482 -27.8125 7.375 C-26.90628906 6.93542969 -26.00007812 6.49585938 -25.06640625 6.04296875 C-16.64143587 2.07625949 -9.31845754 -0.01755219 0 0 Z " fill="#030303" transform="translate(1014.8125,699.625)"/>
<path d="M0 0 C12.45681527 2.98332 24.40680751 9.34363329 36.01586914 14.59692383 C42.63738466 17.57595156 49.30223994 20.30552917 56.09375 22.87231445 C59.71892059 24.27895617 63.18565593 25.87236025 66.6875 27.5625 C72.37380335 30.27599776 78.10729641 32.76770523 84 35 C82.64849257 38.79773589 80.9347216 41.67194413 78.5 44.875 C75.38503997 49.07463362 72.38632135 53.32839474 69.5 57.6875 C69.096604 58.29625977 68.69320801 58.90501953 68.27758789 59.53222656 C67.37479529 60.89629636 66.47257002 62.26074174 65.57080078 63.62548828 C49.56488068 87.82094662 49.56488068 87.82094662 41.4609375 99.41796875 C37.22665502 105.53435857 33.15122993 111.76048081 29.03686523 117.95776367 C24.49884134 124.78331658 19.90587084 131.5654827 15.18603516 138.2668457 C11.30708678 143.82657026 10.05629468 148.29295144 11 155 C13.32745458 160.66426447 18.42738453 164.15094949 23.1328125 167.78125 C55.55338922 192.86965269 55.55338922 192.86965269 61 209 C61.64752791 215.15151515 61.64752791 215.15151515 59.1875 218.375 C53.37103488 222.69580266 44.92525427 221.66120518 38 221 C10.78283271 216.40722312 -16.01232173 199.63013726 -39.55859375 186.10546875 C-42.8618091 184.2087838 -46.17665563 182.34770984 -49.53515625 180.55078125 C-63.22872823 173.20463737 -76.08429918 164.61747085 -89 156 C-88.32014038 152.35935715 -86.77369455 149.59245593 -84.9296875 146.3984375 C-84.28829834 145.28194824 -83.64690918 144.16545898 -82.98608398 143.01513672 C-82.28248634 141.80170155 -81.57878903 140.58832417 -80.875 139.375 C-80.14808856 138.11369191 -79.42161372 136.85213211 -78.69555664 135.59033203 C-76.82844338 132.34800635 -74.95576507 129.10893174 -73.08172607 125.87060547 C-71.42723579 123.00953126 -69.7781529 120.14534923 -68.12890625 117.28125 C-65.04477088 111.92713581 -61.95475621 106.57644128 -58.86328125 101.2265625 C-56.9796495 97.96475993 -55.09877679 94.70138156 -53.21875 91.4375 C-46.62931961 79.99994935 -40.01024239 68.58093705 -33.34399414 57.18798828 C-28.45500883 48.81609011 -23.65574348 40.39426719 -18.8611145 31.96820068 C-12.73649906 21.21289634 -6.43211928 10.57401428 0 0 Z " fill="#EEEEEE" transform="translate(431,860)"/>
<path d="M0 0 C2.83891988 2.083888 3.62292083 4.04144617 4.8359375 7.34765625 C5.30518344 10.64850818 5.35978023 13.89191675 5.3359375 17.22265625 C5.33021729 18.15303711 5.32449707 19.08341797 5.31860352 20.04199219 C5.09379223 28.86186114 3.0599614 36.20928425 -0.1640625 44.34765625 C-0.66674978 45.71303248 -1.16802526 47.07892922 -1.66796875 48.4453125 C-14.01402551 81.14979599 -37.9695001 108.71636918 -61.26171875 134.19921875 C-62.58684839 135.69577173 -63.86268685 137.23681452 -65.09765625 138.80859375 C-67.30279302 141.51811908 -69.66280393 143.90929915 -72.1640625 146.34765625 C-74.25083655 148.40668784 -76.33220388 150.47115671 -78.4140625 152.53515625 C-78.95546875 153.06818359 -79.496875 153.60121094 -80.0546875 154.15039062 C-82.97163351 156.97273162 -82.97163351 156.97273162 -85.1640625 160.34765625 C-89.74534103 159.4709574 -92.46581944 156.7552152 -95.8515625 153.72265625 C-97.11322402 152.61563639 -98.37624138 151.5101598 -99.640625 150.40625 C-100.24938477 149.87370605 -100.85814453 149.34116211 -101.48535156 148.79248047 C-103.51163332 147.0485108 -105.59849731 145.40296046 -107.7265625 143.78515625 C-111.32348697 141.04117894 -114.78571319 138.15827479 -118.2265625 135.22265625 C-123.19322297 130.98753657 -128.21760309 126.8317189 -133.2890625 122.72265625 C-134.31277954 121.89302368 -134.31277954 121.89302368 -135.35717773 121.04663086 C-137.29223592 119.47959989 -139.22799525 117.91344025 -141.1640625 116.34765625 C-147.26234238 111.41286398 -153.28410857 106.40582372 -159.2265625 101.28515625 C-163.85252938 97.29960305 -168.52827165 93.40680602 -173.3203125 89.62109375 C-177.98665994 85.89057973 -182.5831022 82.0750808 -187.1887207 78.27001953 C-190.8250852 75.26728621 -194.47008387 72.27961572 -198.1640625 69.34765625 C-196.52296444 64.0432038 -193.15263328 60.0273316 -189.8515625 55.66015625 C-188.57733419 53.95371523 -187.30391555 52.24666935 -186.03125 50.5390625 C-185.38510742 49.6742627 -184.73896484 48.80946289 -184.07324219 47.91845703 C-181.16811634 44.00656763 -178.32050915 40.05413348 -175.4765625 36.09765625 C-169.75198295 28.14675412 -163.97143613 20.23823605 -158.1640625 12.34765625 C-154.61403621 13.80667805 -152.90392727 15.62183039 -150.6015625 18.66015625 C-147.43572745 22.74056586 -144.19857654 26.72889312 -140.8515625 30.66015625 C-140.39040039 31.20349609 -139.92923828 31.74683594 -139.45410156 32.30664062 C-137.53785278 34.56276238 -135.61833776 36.81605754 -133.6953125 39.06640625 C-128.82210273 44.76909854 -123.99237188 50.45520337 -119.55859375 56.51171875 C-117.43718453 59.30461044 -115.14828436 61.93044874 -112.796875 64.53125 C-111.47014112 66.00716209 -110.21200742 67.54452549 -108.9765625 69.09765625 C-102.79927012 74.03949015 -95.01924742 76.02402459 -87.19921875 75.1953125 C-80.83639807 72.54515494 -78.35376006 66.21456744 -75.5390625 60.41015625 C-71.01090748 51.47096103 -65.75421997 43.8700122 -59.1640625 36.34765625 C-58.7088623 35.82623047 -58.25366211 35.30480469 -57.78466797 34.76757812 C-54.65658184 31.21611692 -51.43041025 27.77220318 -48.1640625 24.34765625 C-47.27976562 23.39890625 -46.39546875 22.45015625 -45.484375 21.47265625 C-38.93835457 14.64202623 -32.16598643 9.3388563 -24.1640625 4.34765625 C-23.2978125 3.79722656 -22.4315625 3.24679687 -21.5390625 2.6796875 C-14.82482 -1.16163393 -7.51791928 -2.26623199 0 0 Z " fill="#EEEEEE" transform="translate(1022.1640625,730.65234375)"/>
<path d="M0 0 C0 3.72267279 -1.0560043 4.99309178 -3.078125 8.09375 C-3.73844727 9.11452637 -4.39876953 10.13530273 -5.07910156 11.18701172 C-5.79549805 12.28029785 -6.51189453 13.37358398 -7.25 14.5 C-7.98742717 15.63637992 -8.7240746 16.7732662 -9.45996094 17.91064453 C-10.9423819 20.20135937 -12.42737793 22.49037068 -13.9140625 24.77832031 C-16.72684626 29.12259636 -19.49432178 33.49435756 -22.25 37.875 C-23.21613834 39.40755681 -24.18228412 40.94010893 -25.1484375 42.47265625 C-25.61862305 43.21918457 -26.08880859 43.96571289 -26.57324219 44.73486328 C-29.00495069 48.595471 -31.43954164 52.45425702 -33.875 56.3125 C-34.36734131 57.09262451 -34.85968262 57.87274902 -35.36694336 58.67651367 C-38.58643536 63.77373942 -41.82123625 68.86099889 -45.06298828 73.9440918 C-50.58492059 82.6030303 -56.0664807 91.28528173 -61.5 100 C-67.49223482 109.61083147 -73.55021305 119.17771928 -79.640625 128.7265625 C-82.92102611 133.87091406 -86.18215637 139.02726489 -89.4375 144.1875 C-92.45049648 148.9633735 -95.46454161 153.73835323 -98.5 158.5 C-101.57534858 163.32524426 -104.63256929 168.16181525 -107.6875 173 C-108.20328613 173.81686279 -108.71907227 174.63372559 -109.25048828 175.4753418 C-111.81760955 179.54160165 -114.38383889 183.60842256 -116.94921875 187.67578125 C-122.32217712 196.19187087 -127.71349893 204.6958425 -133.125 213.1875 C-137.37635061 219.86117935 -141.61476955 226.54243771 -145.8125 233.25 C-146.22709473 233.91153076 -146.64168945 234.57306152 -147.06884766 235.25463867 C-149.14161929 238.56623551 -149.14161929 238.56623551 -151 242 C-156.42029518 240.42524329 -161.11219711 237.95942275 -166.0625 235.3125 C-168.10960044 234.23103249 -170.15789298 233.15182005 -172.20703125 232.07421875 C-172.78512543 231.77020142 -173.3632196 231.46618408 -173.95883179 231.1529541 C-182.36246747 226.74552488 -190.82490906 222.45184809 -199.27816772 218.14065552 C-215.87408126 209.67662202 -232.45209795 201.18179417 -248.97460938 192.57519531 C-252.15364327 190.92000433 -255.33445059 189.26826049 -258.515625 187.6171875 C-272.50224307 180.35595163 -286.47921582 173.07601291 -300.38671875 165.6640625 C-307.82377885 161.70362221 -315.2894111 157.8278903 -322.84057617 154.08935547 C-328.8317357 151.11173525 -334.74940843 148.00125166 -340.65185547 144.85180664 C-345.58377865 142.23203145 -350.55995011 139.70847198 -355.55859375 137.21875 C-363.23124273 133.39709418 -370.86420032 129.50213011 -378.48217773 125.57275391 C-380.56481406 124.49880672 -382.64856892 123.42705297 -384.73242188 122.35546875 C-392.17881768 118.52096669 -399.59898941 114.64277488 -406.97572327 110.67565918 C-410.61992107 108.71906184 -414.29212727 106.83299489 -418 105 C-416 104 -416 104 -413.71606445 104.55737305 C-412.774646 104.87230713 -411.83322754 105.18724121 -410.86328125 105.51171875 C-409.817771 105.85565674 -408.77226074 106.19959473 -407.69506836 106.55395508 C-406.02069702 107.11505981 -406.02069702 107.11505981 -404.3125 107.6875 C-395.98282616 110.42494315 -387.69973739 113.01747159 -379.18359375 115.11328125 C-376.05118654 115.98574313 -373.09506344 117.07412268 -370.06420898 118.23950195 C-366.69758186 119.47983826 -363.26111929 120.45366687 -359.8125 121.4375 C-358.29797083 121.87558965 -356.78364905 122.31439691 -355.26953125 122.75390625 C-354.53557129 122.9667627 -353.80161133 123.17961914 -353.04541016 123.39892578 C-350.35269342 124.19022067 -347.67663998 125.03107968 -345 125.875 C-337.27532669 128.27910751 -329.46952138 130.39954946 -321.66796875 132.53857422 C-320.62253906 132.82748535 -319.57710938 133.11639648 -318.5 133.4140625 C-317.09234375 133.80005615 -317.09234375 133.80005615 -315.65625 134.19384766 C-313.03039119 134.9907765 -310.53630952 135.95623259 -308 137 C-300.86051008 139.36605382 -293.62799143 141.39290401 -286.375 143.375 C-279.29860023 145.31092543 -272.30876259 147.45310023 -265.32446289 149.6965332 C-259.35197263 151.60293212 -253.34614571 153.36033761 -247.3125 155.0625 C-238.48853202 157.55349972 -229.73725128 160.22200216 -221 163 C-217.099653 164.23210757 -213.19661545 165.45500117 -209.2890625 166.6640625 C-206.15092641 167.63521437 -203.02404273 168.63772777 -199.8984375 169.6484375 C-198.14078948 170.20364597 -196.38297894 170.75834022 -194.625 171.3125 C-193.41312012 171.71263306 -193.41312012 171.71263306 -192.17675781 172.12084961 C-186.47530658 173.89366282 -180.97255389 174.7547994 -175 174 C-171.88788641 172.23084477 -171.88788641 172.23084477 -169 170 C-167.53447055 169.49977316 -166.05325286 169.04411739 -164.5625 168.625 C-157.22562618 166.32685025 -152.92436191 161.04179891 -148.08203125 155.3359375 C-145.49942317 152.43837722 -142.76259638 149.72477588 -140 147 C-136.75678732 143.79685141 -133.57060902 140.60889291 -130.625 137.125 C-127.29263751 133.20167668 -123.65584689 129.61791333 -120 126 C-114.58504999 120.65534914 -114.58504999 120.65534914 -109.5 115 C-105.64877784 110.44141051 -101.35336869 106.32897829 -97.11547852 102.13500977 C-93.54827091 98.59064143 -90.16187727 94.98104221 -86.91796875 91.13671875 C-83.61578261 87.45790853 -80.06165273 84.02258744 -76.52905273 80.56616211 C-74.24737515 78.31984356 -72.14087833 76.19074676 -70.234375 73.609375 C-69.82703125 73.07828125 -69.4196875 72.5471875 -69 72 C-68.34 72 -67.68 72 -67 72 C-66.65775391 71.1646875 -66.65775391 71.1646875 -66.30859375 70.3125 C-64.63466461 67.35439238 -62.50800628 65.35572999 -60.0625 63 C-56.46703201 59.53512594 -56.46703201 59.53512594 -53.30859375 55.6875 C-52.87675781 55.130625 -52.44492187 54.57375 -52 54 C-51.34 54 -50.68 54 -50 54 C-49.74404053 53.41734375 -49.48808105 52.8346875 -49.22436523 52.234375 C-47.88224988 49.78511483 -46.40815887 48.19549633 -44.41015625 46.25 C-43.35731445 45.21359375 -43.35731445 45.21359375 -42.28320312 44.15625 C-41.55037109 43.4446875 -40.81753906 42.733125 -40.0625 42 C-38.61359086 40.5856802 -37.16689582 39.16908783 -35.72265625 37.75 C-35.08078369 37.12609375 -34.43891113 36.5021875 -33.77758789 35.859375 C-31.9333705 34.01639514 -31.9333705 34.01639514 -30.39233398 31.765625 C-29.93286377 31.18296875 -29.47339355 30.6003125 -29 30 C-28.34 30 -27.68 30 -27 30 C-26.78730469 29.45859375 -26.57460938 28.9171875 -26.35546875 28.359375 C-24.5098181 25.14677271 -21.96038802 22.79446121 -19.3125 20.25 C-15.19880661 16.22453596 -11.2690514 12.1430751 -7.53515625 7.7578125 C-5.15541388 5.03291666 -2.58876506 2.52562445 0 0 Z " fill="#EDEDED" transform="translate(821,637)"/>
<path d="M0 0 C5.74928549 3.70159477 8.61724749 10.07904361 10.3125 16.5 C11.95733686 33.85018617 9.46141747 47.84846385 -1.4296875 61.71875 C-8.31752999 69.4047545 -18.96018769 75.00332671 -29.30078125 75.66796875 C-46.30200661 75.79098775 -60.0192277 67.67130503 -72.1953125 56.12109375 C-78.43931458 49.52785088 -85.89734774 41.09843646 -86.375 31.625 C-85.89747532 26.35312752 -83.46978435 23.0276723 -79.5 19.625 C-75.45053393 18.00521357 -71.9777676 17.60220815 -67.6875 18.5 C-62.83486525 21.17797064 -60.36046451 24.86543746 -57.8203125 29.7109375 C-53.41643477 36.66602716 -45.11912465 41.44501727 -37.6875 44.5 C-33.70465319 45.32357171 -30.65821023 44.90985543 -26.875 43.3125 C-23.52001893 40.53265855 -22.05015675 37.58797026 -20.6875 33.5 C-20.59351771 31.68945873 -20.55758013 29.87547219 -20.5625 28.0625 C-20.55992187 27.11503906 -20.55734375 26.16757812 -20.5546875 25.19140625 C-20.67407952 22.77196204 -21.09369045 20.82956056 -21.6875 18.5 C-22.06030435 13.68938998 -22.2787097 9.13452095 -20.625 4.5625 C-14.50792929 -1.94922043 -8.11490818 -3.3009796 0 0 Z " fill="#030303" transform="translate(597.6875,463.5)"/>
<path d="M0 0 C5.82895645 2.75228972 11.90860852 7.2270606 15 13 C15.87275561 17.22559175 15.51756588 20.69086279 13.9375 24.6875 C7.35965204 32.53847982 7.35965204 32.53847982 2.34375 33.51953125 C-2.75464446 33.70862006 -7.20031843 33.29383692 -11.5 30.41015625 C-15.97079816 26.20714027 -18.73882576 20.76844698 -19.3125 14.6875 C-18.8426577 9.14336081 -16.47427976 6.29877026 -12.375 2.6875 C-8.33092203 -0.18592382 -4.89892782 -0.8709205 0 0 Z " fill="#060606" transform="translate(408,519)"/>
<path d="M0 0 C5.15075357 1.78295316 7.59985587 4.1073985 10 9 C10.94569555 14.32352213 10.01859264 18.47211105 7 23 C2.6605454 27.38688033 -1.16982933 29.16015653 -7.3125 29.5 C-10.59096527 29.49131532 -12.3608634 29.47224406 -15.01953125 27.5078125 C-18.7215225 23.16630451 -20.38563385 19.93328652 -20.26953125 14.0859375 C-19.60600184 8.95079685 -16.02067982 5.80187197 -12.25 2.625 C-7.90288117 -0.45353583 -5.25242205 -0.76244836 0 0 Z " fill="#080808" transform="translate(692,432)"/>
<path d="M0 0 C0 3.72267279 -1.0560043 4.99309178 -3.078125 8.09375 C-4.0695752 9.62660645 -4.0695752 9.62660645 -5.08105469 11.19042969 C-5.79680664 12.28258789 -6.51255859 13.37474609 -7.25 14.5 C-8.35060639 16.19434648 -9.44900739 17.89011002 -10.54742432 19.58587646 C-11.28857422 20.72952457 -12.030563 21.87262946 -12.77337646 23.01519775 C-16.65378504 28.98780918 -20.43450599 35.02200762 -24.19238281 41.07226562 C-26.59763835 44.91165694 -29.07316567 48.52609384 -32 52 C-32.625 49.625 -32.625 49.625 -33 47 C-32.34 46.34 -31.68 45.68 -31 45 C-32.32 45 -33.64 45 -35 45 C-35.495 43.515 -35.495 43.515 -36 42 C-36.99 41.67 -37.98 41.34 -39 41 C-38.29423828 40.31164062 -38.29423828 40.31164062 -37.57421875 39.609375 C-33.66905586 35.77414308 -33.66905586 35.77414308 -30.1875 31.5625 C-29.795625 31.046875 -29.40375 30.53125 -29 30 C-28.34 30 -27.68 30 -27 30 C-26.78730469 29.45859375 -26.57460938 28.9171875 -26.35546875 28.359375 C-24.5098181 25.14677271 -21.96038802 22.79446121 -19.3125 20.25 C-15.19880661 16.22453596 -11.2690514 12.1430751 -7.53515625 7.7578125 C-5.15541388 5.03291666 -2.58876506 2.52562445 0 0 Z " fill="#E8E8E8" transform="translate(821,637)"/>
<path d="M0 0 C8.43961252 2.25221965 16.81692074 4.69211977 25.1875 7.1875 C26.42564453 7.55552734 27.66378906 7.92355469 28.93945312 8.30273438 C31.95996421 9.20072416 34.98013714 10.09983319 38 11 C34.77208445 13.1519437 33.71599191 13.20086443 30 13 C30.33 13.99 30.66 14.98 31 16 C25.42647184 14.39851545 20.57685988 11.79831951 15.5 9.0625 C13.84403185 8.17785761 12.18778805 7.293731 10.53125 6.41015625 C9.36722656 5.78778076 9.36722656 5.78778076 8.1796875 5.15283203 C5.47465606 3.72214672 2.74576728 2.35059657 0 1 C0 0.67 0 0.34 0 0 Z " fill="#DFDFDF" transform="translate(403,741)"/>
<path d="M0 0 C0 3.50468883 -0.75466257 4.54629919 -2.625 7.44921875 C-3.16640625 8.29677734 -3.7078125 9.14433594 -4.265625 10.01757812 C-4.83796875 10.89865234 -5.4103125 11.77972656 -6 12.6875 C-6.57234375 13.58017578 -7.1446875 14.47285156 -7.734375 15.39257812 C-9.15026338 17.59900419 -10.57231286 19.80119726 -12 22 C-12.33 21.01 -12.66 20.02 -13 19 C-13.78375 19.515625 -14.5675 20.03125 -15.375 20.5625 C-16.24125 21.036875 -17.1075 21.51125 -18 22 C-18.66 21.67 -19.32 21.34 -20 21 C-19.57589844 20.5875 -19.15179687 20.175 -18.71484375 19.75 C-14.85941398 15.95388454 -11.24184296 12.03168086 -7.7109375 7.93359375 C-5.25809972 5.16155106 -2.64889006 2.58428299 0 0 Z " fill="#E4E4E4" transform="translate(821,637)"/>
<path d="M0 0 C1.32 0.66 2.64 1.32 4 2 C4 2.66 4 3.32 4 4 C4.99 5.485 4.99 5.485 6 7 C3.09399739 8.25664978 1.20395416 9 -2 9 C-2.33 8.34 -2.66 7.68 -3 7 C-4.65 8.32 -6.3 9.64 -8 11 C-8.66 10.67 -9.32 10.34 -10 10 C-6.7 6.7 -3.4 3.4 0 0 Z " fill="#E0E0E0" transform="translate(781,679)"/>
<path d="M0 0 C0.66 0.66 1.32 1.32 2 2 C-5 9 -12 16 -19 23 C-19.66 22.67 -20.32 22.34 -21 22 C-20.5059668 21.51120361 -20.01193359 21.02240723 -19.50292969 20.51879883 C-17.2492849 18.28604071 -14.99961783 16.04931513 -12.75 13.8125 C-11.97269531 13.04357422 -11.19539062 12.27464844 -10.39453125 11.48242188 C-6.70185547 7.80552676 -3.12266411 4.18873492 0 0 Z " fill="#242424" transform="translate(786,630)"/>
<path d="M0 0 C1.65 0 3.3 0 5 0 C6.80411967 2.75924185 7.0127245 3.88972103 6.625 7.25 C6.41875 8.1575 6.2125 9.065 6 10 C3.69 8.02 1.38 6.04 -1 4 C-0.67 2.68 -0.34 1.36 0 0 Z " fill="#ECECEC" transform="translate(745,369)"/>
<path d="M0 0 C1.45742463 -0.08096803 2.91612807 -0.13917774 4.375 -0.1875 C5.18710937 -0.22230469 5.99921875 -0.25710938 6.8359375 -0.29296875 C7.55007813 -0.19628906 8.26421875 -0.09960938 9 0 C9.66 0.99 10.32 1.98 11 3 C10.01 4.32 9.02 5.64 8 7 C5.125 6.3125 5.125 6.3125 2 5 C0.625 2.375 0.625 2.375 0 0 Z " fill="#ECECEC" transform="translate(432,753)"/>
<path d="M0 0 C3 1.8125 3 1.8125 6 4 C6 7 6 7 3.6875 9.6875 C1 12 1 12 -2 12 C-1.01 9.03 -0.02 6.06 1 3 C0.34 2.67 -0.32 2.34 -1 2 C-0.67 1.34 -0.34 0.68 0 0 Z " fill="#E4E4E4" transform="translate(830,497)"/>
<path d="M0 0 C0 1.32 0 2.64 0 4 C0.30404678 5.67225729 0.63128912 7.34080104 1 9 C-2.7910119 7.55049545 -6.3874638 5.84827434 -10 4 C-8.66666667 3.33333333 -7.33333333 2.66666667 -6 2 C-5.29875 1.62875 -4.5975 1.2575 -3.875 0.875 C-2 0 -2 0 0 0 Z " fill="#E1E1E1" transform="translate(399,1041)"/>
<path d="M0 0 C13.38095238 3.57142857 13.38095238 3.57142857 17 5 C17.33 5.66 17.66 6.32 18 7 C18.66 7.33 19.32 7.66 20 8 C17.70456573 8.78821819 16.41991018 9.13558044 14.07714844 8.37915039 C13.4277832 8.03875732 12.77841797 7.69836426 12.109375 7.34765625 C11.40039062 6.98349609 10.69140625 6.61933594 9.9609375 6.24414062 C9.23132813 5.85419922 8.50171875 5.46425781 7.75 5.0625 C7.00492187 4.67642578 6.25984375 4.29035156 5.4921875 3.89257812 C3.65585606 2.93909834 1.82715793 1.97094323 0 1 C0 0.67 0 0.34 0 0 Z " fill="#C4C4C4" transform="translate(403,741)"/>
<path d="M0 0 C0.66 1.32 1.32 2.64 2 4 C-1.38779144 7.58707329 -4.73545141 10.49689539 -9 13 C-9.99 13 -10.98 13 -12 13 C-11.55269531 12.56429687 -11.10539063 12.12859375 -10.64453125 11.6796875 C-6.85478464 7.94650427 -3.33540417 4.143987 0 0 Z " fill="#D4D4D4" transform="translate(708,686)"/>
<path d="M0 0 C0 3.88291746 -1.37860494 5.46752535 -3.5 8.6875 C-4.1496875 9.68136719 -4.799375 10.67523437 -5.46875 11.69921875 C-5.9740625 12.45847656 -6.479375 13.21773437 -7 14 C-7.33 13.34 -7.66 12.68 -8 12 C-9.32 12.33 -10.64 12.66 -12 13 C-8.19524578 8.43969176 -4.25030379 4.14910608 0 0 Z " fill="#CBCBCB" transform="translate(821,637)"/>
<path d="M0 0 C3.94627764 0.56375395 6.79480075 1.59610056 10 4 C10.9375 6.0625 10.9375 6.0625 11 8 C10.34 8.66 9.68 9.32 9 10 C7.49702124 8.52386015 5.99768715 7.04400843 4.5 5.5625 C3.6646875 4.73878906 2.829375 3.91507813 1.96875 3.06640625 C0 1 0 1 0 0 Z " fill="#DBDBDB" transform="translate(513,150)"/>
<path d="M0 0 C3.4375 0.8125 3.4375 0.8125 7 2 C7.33 2.99 7.66 3.98 8 5 C8.99 3.68 9.98 2.36 11 1 C12.61949011 3.57213134 13.04408751 4.67669159 12.625 7.75 C12.41875 8.4925 12.2125 9.235 12 10 C3.55353075 3.84965831 3.55353075 3.84965831 0 0 Z " fill="#E5E5E5" transform="translate(866,834)"/>
<path d="M0 0 C2.97 0 5.94 0 9 0 C9.33 2.31 9.66 4.62 10 7 C6.433255 7 5.89456323 6.36308045 3.3125 4.0625 C2.68988281 3.51722656 2.06726563 2.97195313 1.42578125 2.41015625 C0.95527344 1.94480469 0.48476563 1.47945313 0 1 C0 0.67 0 0.34 0 0 Z " fill="#DEDEDE" transform="translate(726,355)"/>
<path d="M0 0 C3 0 3 0 6 1 C6.75 2.9375 6.75 2.9375 7 5 C6.67 5.66 6.34 6.32 6 7 C2.20411134 6.45773019 0.52788007 4.79872437 -2 2 C-1.34 2 -0.68 2 0 2 C0 1.34 0 0.68 0 0 Z " fill="#E0E0E0" transform="translate(931,884)"/>
<path d="M0 0 C0.99 0 1.98 0 3 0 C4.2077558 3.62326739 3.54311128 4.64146369 2 8 C0.68 8 -0.64 8 -2 8 C-1.67 8.99 -1.34 9.98 -1 11 C-1.99 11.33 -2.98 11.66 -4 12 C-2.66666667 8 -1.33333333 4 0 0 Z " fill="#D4D4D4" transform="translate(379,395)"/>
<path d="M0 0 C0.66 0 1.32 0 2 0 C1.30058404 3.14737182 0.23921302 6.02588876 -1 9 C-1.66 9 -2.32 9 -3 9 C-3 8.34 -3 7.68 -3 7 C-4.32 7.33 -5.64 7.66 -7 8 C-6.02133662 6.85373678 -5.04205413 5.70800212 -4.0625 4.5625 C-3.51722656 3.92441406 -2.97195313 3.28632812 -2.41015625 2.62890625 C-1.63204305 1.73008851 -0.84063472 0.84063472 0 0 Z " fill="#DBDBDB" transform="translate(697,767)"/>
<path d="M0 0 C0.66 0.33 1.32 0.66 2 1 C2 1.66 2 2.32 2 3 C3.32 3 4.64 3 6 3 C5.67 3.99 5.34 4.98 5 6 C4.34 6 3.68 6 3 6 C3.33 7.65 3.66 9.3 4 11 C2.68 10.34 1.36 9.68 0 9 C0 8.01 0 7.02 0 6 C-0.66 5.34 -1.32 4.68 -2 4 C-1.67 3.67 -1.34 3.34 -1 3 C-1.66 2.34 -2.32 1.68 -3 1 C-2.01 0.67 -1.02 0.34 0 0 Z " fill="#F3F3F3" transform="translate(785,678)"/>
<path d="M0 0 C2.96530497 1.35800471 5.29131271 2.92428263 7.75 5.0625 C8.67039062 5.85333984 8.67039062 5.85333984 9.609375 6.66015625 C10.06828125 7.10230469 10.5271875 7.54445313 11 8 C11 8.33 11 8.66 11 9 C6.43721973 9.36995516 6.43721973 9.36995516 4.375 7.625 C3.92125 7.08875 3.4675 6.5525 3 6 C2.01 5.34 1.02 4.68 0 4 C0.33 3.34 0.66 2.68 1 2 C0.34 1.67 -0.32 1.34 -1 1 C-0.67 0.67 -0.34 0.34 0 0 Z " fill="#E3E3E3" transform="translate(597,274)"/>
<path d="M0 0 C1.1446875 1.175625 1.1446875 1.175625 2.3125 2.375 C4.90891805 5.07257717 4.90891805 5.07257717 8 7 C5.25 8.1875 5.25 8.1875 2 9 C-0.375 7.625 -0.375 7.625 -2 6 C-1.49396008 3.83125748 -1.00016187 2.00032373 0 0 Z " fill="#DFDFDF" transform="translate(477,1004)"/>
<path d="M0 0 C0.66 0.99 1.32 1.98 2 3 C1.34 4.32 0.68 5.64 0 7 C-0.66 7 -1.32 7 -2 7 C-2.33 8.32 -2.66 9.64 -3 11 C-3.66 11 -4.32 11 -5 11 C-5.33 11.66 -5.66 12.32 -6 13 C-6.66 12.67 -7.32 12.34 -8 12 C-5.36 8.04 -2.72 4.08 0 0 Z " fill="#DCDCDC" transform="translate(493,981)"/>
<path d="M0 0 C0.66 0.99 1.32 1.98 2 3 C0.35 5.64 -1.3 8.28 -3 11 C-5 9 -5 9 -5.4375 6.0625 C-5.293125 5.051875 -5.14875 4.04125 -5 3 C-2.5 1.125 -2.5 1.125 0 0 Z " fill="#E4E4E4" transform="translate(750,746)"/>
<path d="M0 0 C0.66 0 1.32 0 2 0 C2 0.99 2 1.98 2 3 C3.98 2.34 5.96 1.68 8 1 C8 1.99 8 2.98 8 4 C5.69 5.32 3.38 6.64 1 8 C-1.125 3.375 -1.125 3.375 0 0 Z " fill="#E7E7E7" transform="translate(873,530)"/>
<path d="M0 0 C1.12894876 0.93274109 2.25300876 1.87140122 3.375 2.8125 C4.00148438 3.33457031 4.62796875 3.85664063 5.2734375 4.39453125 C7 6 7 6 9 9 C8.01 9.33 7.02 9.66 6 10 C4.17578125 8.78515625 4.17578125 8.78515625 2.3125 7.0625 C1.68988281 6.49660156 1.06726563 5.93070312 0.42578125 5.34765625 C-0.04472656 4.90292969 -0.51523437 4.45820313 -1 4 C-0.67 2.68 -0.34 1.36 0 0 Z " fill="#E2E2E2" transform="translate(821,488)"/>
<path d="M0 0 C1.32 0.66 2.64 1.32 4 2 C1.42215154 4.64752004 -0.91648098 6.94432065 -4 9 C-4 9.99 -4 10.98 -4 12 C-5.32 11.67 -6.64 11.34 -8 11 C-5.36 7.37 -2.72 3.74 0 0 Z " fill="#D4D4D4" transform="translate(864,743)"/>
<path d="M0 0 C0.99 0 1.98 0 3 0 C3 0.99 3 1.98 3 3 C2.34 3 1.68 3 1 3 C0.67 3.66 0.34 4.32 0 5 C-1.875 4.75 -1.875 4.75 -4 4 C-5.25 1.9375 -5.25 1.9375 -6 0 C-3.47064411 -1.26467795 -2.65809097 -0.7249339 0 0 Z " fill="#E6E6E6" transform="translate(906,737)"/>
<path d="M0 0 C1.32 0 2.64 0 4 0 C4.54372951 3.05847848 5 5.88772805 5 9 C2.69 7.02 0.38 5.04 -2 3 C-1.34 2.01 -0.68 1.02 0 0 Z " fill="#E5E5E5" transform="translate(508,141)"/>
<path d="M0 0 C1.875 0.1875 1.875 0.1875 4 1 C5.49092622 3.90338265 6.22683394 6.84682711 7 10 C5.82174642 9.09827532 4.65768423 8.17798498 3.5 7.25 C2.8503125 6.73953125 2.200625 6.2290625 1.53125 5.703125 C0 4 0 4 0 0 Z " fill="#E4E4E4" transform="translate(711,337)"/>
<path d="M0 0 C3.59905908 0.55550695 4.99909799 1.74887248 7.25 4.5625 C8.03117187 5.52349609 8.03117187 5.52349609 8.828125 6.50390625 C9.21484375 6.99761719 9.6015625 7.49132813 10 8 C6.06830895 8 4.83572772 6.60580385 2 4 C2 3.34 2 2.68 2 2 C1.34 2 0.68 2 0 2 C0 1.34 0 0.68 0 0 Z " fill="#E1E1E1" transform="translate(466,1040)"/>
<path d="M0 0 C0.99 0.33 1.98 0.66 3 1 C3.33 2.98 3.66 4.96 4 7 C1.69 6.67 -0.62 6.34 -3 6 C-1.125 1.125 -1.125 1.125 0 0 Z " fill="#E3E3E3" transform="translate(499,972)"/>
<path d="M0 0 C1.65 0.33 3.3 0.66 5 1 C3.75023244 4.65316671 3.32901247 5.78065836 0 8 C-0.66 6.35 -1.32 4.7 -2 3 C-1.34 3 -0.68 3 0 3 C0 2.01 0 1.02 0 0 Z " fill="#DDDDDD" transform="translate(510,894)"/>
<path d="M0 0 C0.33 1.32 0.66 2.64 1 4 C1.99 4 2.98 4 4 4 C4.33 5.32 4.66 6.64 5 8 C2.03 7.01 -0.94 6.02 -4 5 C-4 4.01 -4 3.02 -4 2 C-2.68 2 -1.36 2 0 2 C0 1.34 0 0.68 0 0 Z " fill="#D9D9D9" transform="translate(475,840)"/>
<path d="M0 0 C4.95 0.99 4.95 0.99 10 2 C10 3.65 10 5.3 10 7 C3.29090909 4.39090909 3.29090909 4.39090909 1 3 C0.67 2.01 0.34 1.02 0 0 Z " fill="#E2E2E2" transform="translate(584,833)"/>
<path d="M0 0 C1.4943899 2.98877979 0.91874257 4.85002546 0 8 C-2.4375 9.125 -2.4375 9.125 -5 10 C-6.34410262 12.01735205 -6.34410262 12.01735205 -7 14 C-7 10.11708254 -5.62139506 8.53247465 -3.5 5.3125 C-2.8503125 4.31863281 -2.200625 3.32476563 -1.53125 2.30078125 C-0.77328125 1.16189453 -0.77328125 1.16189453 0 0 Z " fill="#D6D6D6" transform="translate(749,808)"/>
<path d="M0 0 C0.66 0.66 1.32 1.32 2 2 C-2.29 6.29 -6.58 10.58 -11 15 C-11.66 14.67 -12.32 14.34 -13 14 C-12.31292969 13.32453125 -11.62585938 12.6490625 -10.91796875 11.953125 C-10.01691406 11.06109375 -9.11585938 10.1690625 -8.1875 9.25 C-6.84751953 7.92742188 -6.84751953 7.92742188 -5.48046875 6.578125 C-3.44787848 4.46551149 -1.68226182 2.39205335 0 0 Z " fill="#272727" transform="translate(769,575)"/>
<path d="M0 0 C1.32 0.33 2.64 0.66 4 1 C1.69 3.64 -0.62 6.28 -3 9 C-3.99 8.67 -4.98 8.34 -6 8 C-5.34 6.68 -4.68 5.36 -4 4 C-2.68 4 -1.36 4 0 4 C0 2.68 0 1.36 0 0 Z " fill="#DCDCDC" transform="translate(842,567)"/>
<path d="M0 0 C2.31 0.66 4.62 1.32 7 2 C5.35 3.98 3.7 5.96 2 8 C1.67 6.68 1.34 5.36 1 4 C0.34 4 -0.32 4 -1 4 C-0.67 2.68 -0.34 1.36 0 0 Z " fill="#E2E2E2" transform="translate(804,528)"/>
<path d="M0 0 C0.66 0 1.32 0 2 0 C2 0.66 2 1.32 2 2 C2.99 2.33 3.98 2.66 5 3 C4.67 3.66 4.34 4.32 4 5 C3.34 5 2.68 5 2 5 C1.67 6.32 1.34 7.64 1 9 C0.01 8.01 -0.98 7.02 -2 6 C-1.34 4.02 -0.68 2.04 0 0 Z " fill="#DBDBDB" transform="translate(477,158)"/>
<path d="M0 0 C-1.3697164 3.99500618 -3.25722422 6.80009492 -6 10 C-6.33 8.02 -6.66 6.04 -7 4 C-2.25 0 -2.25 0 0 0 Z " fill="#E4E4E4" transform="translate(480,946)"/>
<path d="M0 0 C0.99 0.33 1.98 0.66 3 1 C3.33 0.67 3.66 0.34 4 0 C5.5 1.375 5.5 1.375 7 3 C7 3.66 7 4.32 7 5 C7.66 5.66 8.32 6.32 9 7 C8.01 7.33 7.02 7.66 6 8 C4.17578125 6.78515625 4.17578125 6.78515625 2.3125 5.0625 C1.68988281 4.49660156 1.06726563 3.93070313 0.42578125 3.34765625 C-0.04472656 2.90292969 -0.51523437 2.45820312 -1 2 C-0.67 1.34 -0.34 0.68 0 0 Z " fill="#E1E1E1" transform="translate(841,811)"/>
<path d="M0 0 C1.32 0 2.64 0 4 0 C4 0.66 4 1.32 4 2 C6.475 2.99 6.475 2.99 9 4 C9 5.32 9 6.64 9 8 C8.01 8 7.02 8 6 8 C4.39453125 6.25 4.39453125 6.25 2.8125 4 C2.28269531 3.2575 1.75289062 2.515 1.20703125 1.75 C0.80871094 1.1725 0.41039062 0.595 0 0 Z " fill="#E2E2E2" transform="translate(890,726)"/>
<path d="M0 0 C0.33 0.99 0.66 1.98 1 3 C1.66 3.33 2.32 3.66 3 4 C2.01 4.33 1.02 4.66 0 5 C-0.66 4.67 -1.32 4.34 -2 4 C-2 4.66 -2 5.32 -2 6 C-1.34 6.33 -0.68 6.66 0 7 C-0.99 7 -1.98 7 -3 7 C-3.33 7.99 -3.66 8.98 -4 10 C-4.99 9.67 -5.98 9.34 -7 9 C-5.7260411 6.96166576 -4.38938077 4.96147874 -3 3 C-2.34 3 -1.68 3 -1 3 C-0.67 2.01 -0.34 1.02 0 0 Z " fill="#D1D1D1" transform="translate(716,677)"/>
<path d="M0 0 C2.31 1.98 4.62 3.96 7 6 C6.67 6.99 6.34 7.98 6 9 C5.34 9 4.68 9 4 9 C4 8.34 4 7.68 4 7 C3.34 7 2.68 7 2 7 C2 6.01 2 5.02 2 4 C1.01 3.67 0.02 3.34 -1 3 C-0.67 2.01 -0.34 1.02 0 0 Z M-2 4 C0 5 0 5 0 5 Z " fill="#E9E9E9" transform="translate(648,322)"/>
<path d="M0 0 C0.66 0.33 1.32 0.66 2 1 C1.40072174 4.35595828 0.15377564 6.37801226 -2 9 C-4.1519437 5.77208445 -4.20086443 4.71599191 -4 1 C-3.01 1.33 -2.02 1.66 -1 2 C-0.67 1.34 -0.34 0.68 0 0 Z " fill="#E9E9E9" transform="translate(381,881)"/>
<path d="M0 0 C-0.56371414 3.26954202 -1.49962266 4.82575883 -4 7 C-4.66 6.67 -5.32 6.34 -6 6 C-6.625 3.4375 -6.625 3.4375 -7 1 C-4.53721199 -0.231394 -2.7204945 -0.07159196 0 0 Z " fill="#E7E7E7" transform="translate(816,757)"/>
<path d="M0 0 C5.53846154 -0.36923077 5.53846154 -0.36923077 7.875 1.5 C8.24625 1.995 8.6175 2.49 9 3 C8.01 3 7.02 3 6 3 C6 3.66 6 4.32 6 5 C3.69 4.34 1.38 3.68 -1 3 C-0.67 2.01 -0.34 1.02 0 0 Z " fill="#DFDFDF" transform="translate(433,825)"/>
<path d="M0 0 C3.3 0 6.6 0 10 0 C7.99006295 2.00993705 6.40788768 2.89940919 3.875 4.125 C3.15054688 4.47820313 2.42609375 4.83140625 1.6796875 5.1953125 C1.12539063 5.46085938 0.57109375 5.72640625 0 6 C-0.66 5.34 -1.32 4.68 -2 4 C-1.34 4 -0.68 4 0 4 C0 2.68 0 1.36 0 0 Z " fill="#E3E3E3" transform="translate(979,706)"/>
<path d="M0 0 C0.66 0.99 1.32 1.98 2 3 C1.67 3.66 1.34 4.32 1 5 C-1.9375 4.1875 -1.9375 4.1875 -5 3 C-5.33 2.01 -5.66 1.02 -6 0 C-2.25 -1.125 -2.25 -1.125 0 0 Z " fill="#DDDDDD" transform="translate(454,763)"/>
<path d="M0 0 C0.33 0 0.66 0 1 0 C1.33 2.64 1.66 5.28 2 8 C1.01 8 0.02 8 -1 8 C-2.32 8.33 -3.64 8.66 -5 9 C-3.35 6.03 -1.7 3.06 0 0 Z " fill="#E0E0E0" transform="translate(797,732)"/>
<path d="M0 0 C0.66 0 1.32 0 2 0 C2.125 2.375 2.125 2.375 2 5 C1.34 5.66 0.68 6.32 0 7 C-2.125 6.625 -2.125 6.625 -4 6 C-3.67 5.01 -3.34 4.02 -3 3 C-2.34 3 -1.68 3 -1 3 C-0.67 2.01 -0.34 1.02 0 0 Z " fill="#E4E4E4" transform="translate(629,722)"/>
<path d="M0 0 C0.33 0.99 0.66 1.98 1 3 C0.01 3.33 -0.98 3.66 -2 4 C-1.67 5.65 -1.34 7.3 -1 9 C-1.99 9.33 -2.98 9.66 -4 10 C-4.66 8.68 -5.32 7.36 -6 6 C-4.02 4.02 -2.04 2.04 0 0 Z " fill="#D1D1D1" transform="translate(774,614)"/>
<path d="M0 0 C2.50037734 2.17424117 3.43628586 3.73045798 4 7 C0 7 0 7 -2 6 C-1.49396008 3.83125748 -1.00016187 2.00032373 0 0 Z " fill="#DADADA" transform="translate(344,1010)"/>
<path d="M0 0 C1.32 0.66 2.64 1.32 4 2 C2.68 4.64 1.36 7.28 0 10 C-0.33 10 -0.66 10 -1 10 C-2.25 3.375 -2.25 3.375 0 0 Z " fill="#E2E2E2" transform="translate(700,885)"/>
<path d="M0 0 C0.33 0 0.66 0 1 0 C1.36627907 5.49418605 1.36627907 5.49418605 -0.3125 7.8125 C-2 9 -2 9 -5 10 C-3.66654496 6.40992874 -2.1056769 3.20429093 0 0 Z " fill="#DFDFDF" transform="translate(709,871)"/>
<path d="M0 0 C0.33 0.66 0.66 1.32 1 2 C1.66 2.33 2.32 2.66 3 3 C2.01 3.33 1.02 3.66 0 4 C0.2784375 4.928125 0.2784375 4.928125 0.5625 5.875 C1 8 1 8 0 10 C-1.32 9.34 -2.64 8.68 -4 8 C-2.87548273 5.0280615 -1.77706209 2.66559313 0 0 Z " fill="#D7D7D7" transform="translate(828,792)"/>
<path d="M0 0 C0 3 0 3 -2 6 C-2.33 6.99 -2.66 7.98 -3 9 C-4.98 9.33 -6.96 9.66 -9 10 C-8.06409496 8.8944811 -7.12620142 7.79064547 -6.1875 6.6875 C-5.66542969 6.07261719 -5.14335938 5.45773437 -4.60546875 4.82421875 C-3.12827531 3.14575321 -1.59960869 1.56117966 0 0 Z " fill="#D3D3D3" transform="translate(721,742)"/>
<path d="M0 0 C1.0625 1.875 1.0625 1.875 2 4 C1.67 4.66 1.34 5.32 1 6 C0.34 6 -0.32 6 -1 6 C-1.33 6.99 -1.66 7.98 -2 9 C-2.66 9 -3.32 9 -4 9 C-3.35455571 5.51460083 -1.89865603 2.97180943 0 0 Z " fill="#DEDEDE" transform="translate(692,898)"/>
<path d="M0 0 C0.99 0.33 1.98 0.66 3 1 C3.33 2.65 3.66 4.3 4 6 C1.03 5.01 -1.94 4.02 -5 3 C-3.68 2.34 -2.36 1.68 -1 1 C-0.67 0.67 -0.34 0.34 0 0 Z " fill="#D3D3D3" transform="translate(513,858)"/>
<path d="M0 0 C-1.3697164 3.99500618 -3.25722422 6.80009492 -6 10 C-6.33 9.34 -6.66 8.68 -7 8 C-4.05263158 0 -4.05263158 0 0 0 Z " fill="#E1E1E1" transform="translate(711,812)"/>
<path d="M0 0 C0.66 1.32 1.32 2.64 2 4 C1.34 4 0.68 4 0 4 C0 4.66 0 5.32 0 6 C-0.99 6 -1.98 6 -3 6 C-3 6.66 -3 7.32 -3 8 C-4.32 8.33 -5.64 8.66 -7 9 C-6.02180976 7.68677212 -5.0424189 6.37443848 -4.0625 5.0625 C-3.51722656 4.33160156 -2.97195313 3.60070312 -2.41015625 2.84765625 C-1 1 -1 1 0 0 Z " fill="#D2D2D2" transform="translate(970,759)"/>
<path d="M0 0 C0.9075 0.226875 1.815 0.45375 2.75 0.6875 C1.43 1.0175 0.11 1.3475 -1.25 1.6875 C-1.25 2.3475 -1.25 3.0075 -1.25 3.6875 C0.07 4.0175 1.39 4.3475 2.75 4.6875 C0.75 5.6875 0.75 5.6875 -1.1953125 5.12890625 C-1.91460938 4.83886719 -2.63390625 4.54882812 -3.375 4.25 C-4.09945312 3.96253906 -4.82390625 3.67507813 -5.5703125 3.37890625 C-6.40175781 3.03666016 -6.40175781 3.03666016 -7.25 2.6875 C-4.61280971 0.1517401 -3.74095095 -0.35970682 0 0 Z " fill="#D0D0D0" transform="translate(576.25,705.3125)"/>
<path d="M0 0 C-3 2 -3 2 -5.48046875 1.7578125 C-6.37378906 1.54898438 -7.26710938 1.34015625 -8.1875 1.125 C-9.08855469 0.92132812 -9.98960937 0.71765625 -10.91796875 0.5078125 C-11.60503906 0.34023438 -12.29210937 0.17265625 -13 0 C-13 -0.33 -13 -0.66 -13 -1 C-4.57142857 -2.42857143 -4.57142857 -2.42857143 0 0 Z " fill="#D6D6D6" transform="translate(616,771)"/>
<path d="M0 0 C0.66 0.33 1.32 0.66 2 1 C1.34 3.31 0.68 5.62 0 8 C-0.66 7.67 -1.32 7.34 -2 7 C-2 6.34 -2 5.68 -2 5 C-2.66 5 -3.32 5 -4 5 C-3 2 -3 2 0 0 Z " fill="#E9E9E9" transform="translate(317,462)"/>
<path d="M0 0 C-1.75 5.75 -1.75 5.75 -4 8 C-4.66 7.67 -5.32 7.34 -6 7 C-6 3 -6 3 -4.6875 1.25 C-3 0 -3 0 0 0 Z " fill="#DDDDDD" transform="translate(399,270)"/>
<path d="M0 0 C0 2.67884659 -0.11409459 4.50335747 -1 7 C-1.99 7.66 -2.98 8.32 -4 9 C-4 8.34 -4 7.68 -4 7 C-4.66 6.67 -5.32 6.34 -6 6 C-4.02 4.02 -2.04 2.04 0 0 Z " fill="#D5D5D5" transform="translate(973,895)"/>
<path d="M0 0 C0.33 0.66 0.66 1.32 1 2 C0.22265625 3.9453125 0.22265625 3.9453125 -0.9375 6.125 C-1.31777344 6.84945312 -1.69804688 7.57390625 -2.08984375 8.3203125 C-2.39019531 8.87460937 -2.69054687 9.42890625 -3 10 C-3.99 10 -4.98 10 -6 10 C-4.6302836 6.00499382 -2.74277578 3.19990508 0 0 Z " fill="#CDCDCD" transform="translate(1019,840)"/>
<path d="M0 0 C5.75 1.75 5.75 1.75 8 4 C4.67465243 5.10844919 2.37817425 4.84454356 -1 4 C-0.67 2.68 -0.34 1.36 0 0 Z " fill="#E7E7E7" transform="translate(417,783)"/>
<path d="M0 0 C0.33 0.66 0.66 1.32 1 2 C-0.28419041 3.67243402 -1.57757185 5.33781447 -2.875 7 C-3.59429688 7.928125 -4.31359375 8.85625 -5.0546875 9.8125 C-5.69664062 10.534375 -6.33859375 11.25625 -7 12 C-7.66 12 -8.32 12 -9 12 C-7.55575365 8.76138697 -5.74227753 6.38030837 -3.375 3.75 C-2.74335937 3.04359375 -2.11171875 2.3371875 -1.4609375 1.609375 C-0.97882812 1.07828125 -0.49671875 0.5471875 0 0 Z " fill="#D3D3D3" transform="translate(748,642)"/>
<path d="M0 0 C0.99 0.33 1.98 0.66 3 1 C2.34 2.98 1.68 4.96 1 7 C-0.32 6.34 -1.64 5.68 -3 5 C-2.625 3.0625 -2.625 3.0625 -2 1 C-1.34 0.67 -0.68 0.34 0 0 Z " fill="#E3E3E3" transform="translate(261,597)"/>
<path d="M0 0 C0.33 0.66 0.66 1.32 1 2 C0.0625 4.125 0.0625 4.125 -1 6 C-1.66 6 -2.32 6 -3 6 C-3 6.66 -3 7.32 -3 8 C-4.65 8.66 -6.3 9.32 -8 10 C-7.04367001 8.70684939 -6.08486149 7.41553147 -5.125 6.125 C-4.59132813 5.40570312 -4.05765625 4.68640625 -3.5078125 3.9453125 C-2 2 -2 2 0 0 Z " fill="#DBDBDB" transform="translate(839,543)"/>
<path d="M0 0 C0.66 0.33 1.32 0.66 2 1 C-1.3 3.97 -4.6 6.94 -8 10 C-8.66 9.67 -9.32 9.34 -10 9 C-8.89902432 7.87187697 -7.79408444 6.74762189 -6.6875 5.625 C-6.07261719 4.99851562 -5.45773437 4.37203125 -4.82421875 3.7265625 C-3 2 -3 2 0 0 Z " fill="#282828" transform="translate(879,534)"/>
<path d="M0 0 C0.99 0.33 1.98 0.66 3 1 C3.33 1.99 3.66 2.98 4 4 C3.67 4.66 3.34 5.32 3 6 C1.02 5.34 -0.96 4.68 -3 4 C-3 3.34 -3 2.68 -3 2 C-2.01 2 -1.02 2 0 2 C0 1.34 0 0.68 0 0 Z " fill="#D7D7D7" transform="translate(667,873)"/>
<path d="M0 0 C0.66 0.33 1.32 0.66 2 1 C1.67 1.99 1.34 2.98 1 4 C-5.625 4.25 -5.625 4.25 -9 2 C-7.88625 1.855625 -6.7725 1.71125 -5.625 1.5625 C-2.17857953 1.21627965 -2.17857953 1.21627965 0 0 Z " fill="#D8D8D8" transform="translate(622,771)"/>
<path d="M0 0 C0.66 0.33 1.32 0.66 2 1 C1.67 2.65 1.34 4.3 1 6 C-0.32 6 -1.64 6 -3 6 C-2.42655063 3.13275314 -2.1385485 2.1385485 0 0 Z " fill="#E2E2E2" transform="translate(677,720)"/>
<path d="M0 0 C0.66 1.32 1.32 2.64 2 4 C0.68 5.65 -0.64 7.3 -2 9 C-2 7.68 -2 6.36 -2 5 C-2.66 4.67 -3.32 4.34 -4 4 C-3.34 4 -2.68 4 -2 4 C-1.34 2.68 -0.68 1.36 0 0 Z " fill="#E4E4E4" transform="translate(774,707)"/>
<path d="M0 0 C0.66 1.32 1.32 2.64 2 4 C0.35 5.65 -1.3 7.3 -3 9 C-3.33 8.34 -3.66 7.68 -4 7 C-3.67 6.01 -3.34 5.02 -3 4 C-2.34 4 -1.68 4 -1 4 C-0.67 2.68 -0.34 1.36 0 0 Z " fill="#E5E5E5" transform="translate(796,540)"/>
<path d="M0 0 C3.42353587 1.21480305 5.01180815 3.01771223 7 6 C3.89448334 6 2.64738916 5.4606285 0 4 C0 3.34 0 2.68 0 2 C-0.66 1.67 -1.32 1.34 -2 1 C-1.34 0.67 -0.68 0.34 0 0 Z " fill="#E3E3E3" transform="translate(772,442)"/>
<path d="M0 0 C0.66 0.33 1.32 0.66 2 1 C0.68 4.3 -0.64 7.6 -2 11 C-2.33 10.34 -2.66 9.68 -3 9 C-3.66 8.67 -4.32 8.34 -5 8 C-4.34 7.01 -3.68 6.02 -3 5 C-2.34 5 -1.68 5 -1 5 C-0.67 3.35 -0.34 1.7 0 0 Z " fill="#DCDCDC" transform="translate(334,423)"/>
<path d="M0 0 C0.33 0.66 0.66 1.32 1 2 C1.66 2.33 2.32 2.66 3 3 C1.75453595 6.73639216 0.36595047 7.18756513 -3 9 C-2.01 6.03 -1.02 3.06 0 0 Z " fill="#D4D4D4" transform="translate(394,359)"/>
<path d="M0 0 C0.66 0 1.32 0 2 0 C2.66 1.65 3.32 3.3 4 5 C3.34 5.66 2.68 6.32 2 7 C0.68 5.35 -0.64 3.7 -2 2 C-1.34 1.34 -0.68 0.68 0 0 Z " fill="#E1E1E1" transform="translate(488,122)"/>
<path d="M0 0 C5.75 1.75 5.75 1.75 8 4 C7.01 4.33 6.02 4.66 5 5 C4.34 5.66 3.68 6.32 3 7 C2.67 6.01 2.34 5.02 2 4 C1.34 3.34 0.68 2.68 0 2 C0 1.34 0 0.68 0 0 Z " fill="#DDDDDD" transform="translate(638,897)"/>
<path d="M0 0 C1.60031344 3.20062687 0.03173691 5.72271806 -1 9 C-2.65 9.33 -4.3 9.66 -6 10 C-4.02 6.7 -2.04 3.4 0 0 Z " fill="#DADADA" transform="translate(825,688)"/>
<path d="M0 0 C2.97 0.99 5.94 1.98 9 3 C8.67 3.99 8.34 4.98 8 6 C7.01 6 6.02 6 5 6 C5 5.34 5 4.68 5 4 C4.34 4 3.68 4 3 4 C3 3.34 3 2.68 3 2 C2.01 1.67 1.02 1.34 0 1 C0 0.67 0 0.34 0 0 Z " fill="#CBCBCB" transform="translate(365,664)"/>
<path d="M0 0 C1.625 1.6875 1.625 1.6875 3 4 C2.1875 6.75 2.1875 6.75 1 9 C-1 8 -1 8 -1.75 6.1875 C-2.05694702 3.50171361 -1.38111722 2.2747813 0 0 Z " fill="#E2E2E2" transform="translate(853,643)"/>
<path d="M0 0 C0 3.99904969 -1.72586967 5.80200422 -4 9 C-4.99 8.34 -5.98 7.68 -7 7 C-4.69 4.69 -2.38 2.38 0 0 Z " fill="#BABABA" transform="translate(821,637)"/>
<path d="M0 0 C0.66 0 1.32 0 2 0 C1.65120368 3.25543229 0.97866739 4.01873107 -1.5625 6.25 C-2.366875 6.8275 -3.17125 7.405 -4 8 C-3.67 6.35 -3.34 4.7 -3 3 C-2.34 3 -1.68 3 -1 3 C-0.67 2.01 -0.34 1.02 0 0 Z " fill="#E6E6E6" transform="translate(853,556)"/>
<path d="M0 0 C4 4.625 4 4.625 4 8 C1.95880212 6.38405168 -0.04072937 4.7143618 -2 3 C-2 2.34 -2 1.68 -2 1 C-1.34 0.67 -0.68 0.34 0 0 Z " fill="#E2E2E2" transform="translate(536,168)"/>
<path d="M0 0 C0.33 0.66 0.66 1.32 1 2 C1.99 2.33 2.98 2.66 4 3 C3.67 3.99 3.34 4.98 3 6 C-0.16115776 4.63016497 -0.9927092 4.0109362 -3 1 C-2.01 0.67 -1.02 0.34 0 0 Z " fill="#D9D9D9" transform="translate(883,844)"/>
<path d="M0 0 C1 4 1 4 -0.75 7.25 C-1.4925 8.1575 -2.235 9.065 -3 10 C-3.99 10 -4.98 10 -6 10 C-4.02 6.7 -2.04 3.4 0 0 Z " fill="#CECECE" transform="translate(1035,815)"/>
<path d="M0 0 C2.31 0.66 4.62 1.32 7 2 C5.68 3.32 4.36 4.64 3 6 C0.8614515 3.8614515 0.57344937 2.86724686 0 0 Z " fill="#E1E1E1" transform="translate(692,720)"/>
<path d="M0 0 C1.04449911 3.13349732 0.93423645 3.98968256 0 7 C-0.66 7 -1.32 7 -2 7 C-2 7.66 -2 8.32 -2 9 C-2.99 8.67 -3.98 8.34 -5 8 C-3.35 5.36 -1.7 2.72 0 0 Z " fill="#D6D6D6" transform="translate(811,710)"/>
<path d="M0 0 C1.32 0.33 2.64 0.66 4 1 C1.36 2.98 -1.28 4.96 -4 7 C-4.66 6.67 -5.32 6.34 -6 6 C-5.09972412 4.96468274 -4.17906965 3.94705835 -3.25 2.9375 C-2.48429688 2.08478516 -2.48429688 2.08478516 -1.703125 1.21484375 C-1.14109375 0.81394531 -0.5790625 0.41304687 0 0 Z " fill="#DCDCDC" transform="translate(702,693)"/>
<path d="M0 0 C0.33 0.66 0.66 1.32 1 2 C1.66 2.33 2.32 2.66 3 3 C3.33 3.99 3.66 4.98 4 6 C1.69 5.34 -0.62 4.68 -3 4 C-2.01 3.67 -1.02 3.34 0 3 C0 2.01 0 1.02 0 0 Z M2 0 C2.99 0.33 3.98 0.66 5 1 C4.01 1 3.02 1 2 1 C2 0.67 2 0.34 2 0 Z " fill="#CACACA" transform="translate(335,617)"/>
<path d="M0 0 C3 1.8125 3 1.8125 6 4 C6 4.99 6 5.98 6 7 C3.525 6.01 3.525 6.01 1 5 C1 4.34 1 3.68 1 3 C0.34 2.67 -0.32 2.34 -1 2 C-0.67 1.34 -0.34 0.68 0 0 Z " fill="#DADADA" transform="translate(830,497)"/>
<path d="M0 0 C0.66 0 1.32 0 2 0 C2 0.66 2 1.32 2 2 C2.66 2.33 3.32 2.66 4 3 C4.33 3.99 4.66 4.98 5 6 C2 6 2 6 0.3125 4.5 C-0.120625 4.005 -0.55375 3.51 -1 3 C-0.67 2.01 -0.34 1.02 0 0 Z " fill="#DCDCDC" transform="translate(770,394)"/>
<path d="M0 0 C2.0625 0.4375 2.0625 0.4375 4 1 C3.34 2.98 2.68 4.96 2 7 C1.34 6.67 0.68 6.34 0 6 C-0.6875 3.5 -0.6875 3.5 -1 1 C-0.67 0.67 -0.34 0.34 0 0 Z " fill="#E7E7E7" transform="translate(362,349)"/>
<path d="M0 0 C0.99 1.98 1.98 3.96 3 6 C2.01 6 1.02 6 0 6 C-2.1875 3.5 -2.1875 3.5 -4 1 C-2 0 -2 0 0 0 Z " fill="#E7E7E7" transform="translate(684,309)"/>
<path d="M0 0 C2.31 1.98 4.62 3.96 7 6 C6.34 6.66 5.68 7.32 5 8 C4.67 7.01 4.34 6.02 4 5 C1.99983534 3.79117904 1.99983534 3.79117904 0 3 C0 2.01 0 1.02 0 0 Z " fill="#D4D4D4" transform="translate(586,262)"/>
<path d="M0 0 C2.475 0.99 2.475 0.99 5 2 C5 2.66 5 3.32 5 4 C3.02 4.99 3.02 4.99 1 6 C0.34 5.34 -0.32 4.68 -1 4 C-0.625 1.875 -0.625 1.875 0 0 Z " fill="#E7E7E7" transform="translate(654,905)"/>
<path d="M0 0 C4.455 0.99 4.455 0.99 9 2 C8.01 2.66 7.02 3.32 6 4 C2.3125 3.125 2.3125 3.125 -1 2 C-0.67 1.34 -0.34 0.68 0 0 Z " fill="#D6D6D6" transform="translate(432,750)"/>
<path d="M0 0 C0.66 0.66 1.32 1.32 2 2 C-0.64 3.98 -3.28 5.96 -6 8 C-6.66 7.67 -7.32 7.34 -8 7 C-5.36 4.69 -2.72 2.38 0 0 Z " fill="#CDCDCD" transform="translate(989,741)"/>
<path d="M0 0 C0.33 1.32 0.66 2.64 1 4 C-0.32 4.99 -1.64 5.98 -3 7 C-3.33 5.68 -3.66 4.36 -4 3 C-2.68 2.01 -1.36 1.02 0 0 Z " fill="#E8E8E8" transform="translate(718,627)"/>
<path d="M0 0 C0.66 0.99 1.32 1.98 2 3 C0.6875 4.5 0.6875 4.5 -1 6 C-1.99 6 -2.98 6 -4 6 C-2.25 1.125 -2.25 1.125 0 0 Z " fill="#E3E3E3" transform="translate(572,502)"/>
<path d="M0 0 C0.66 0.33 1.32 0.66 2 1 C1.67 1.66 1.34 2.32 1 3 C0.34 3 -0.32 3 -1 3 C-1 3.66 -1 4.32 -1 5 C-3.5 6.625 -3.5 6.625 -6 8 C-4.73058503 4.08597051 -3.48832306 2.20927127 0 0 Z " fill="#202020" transform="translate(583,463)"/>
<path d="M0 0 C0.66 0 1.32 0 2 0 C2.33 0.99 2.66 1.98 3 3 C1.35 4.32 -0.3 5.64 -2 7 C-2 3.89448334 -1.4606285 2.64738916 0 0 Z " fill="#D9D9D9" transform="translate(352,996)"/>
<path d="M0 0 C0.99 1.32 1.98 2.64 3 4 C2.01 5.32 1.02 6.64 0 8 C-1.09658936 4.71023192 -0.79953138 3.28696233 0 0 Z " fill="#E7E7E7" transform="translate(371,896)"/>
<path d="M0 0 C1.32 0.66 2.64 1.32 4 2 C2.60804085 4.7839183 0.84424221 4.97898997 -2 6 C-2 3 -2 3 0 0 Z " fill="#DDDDDD" transform="translate(1002,862)"/>
<path d="M0 0 C0.33 1.65 0.66 3.3 1 5 C0.01 5.495 0.01 5.495 -1 6 C-2.32 5.01 -3.64 4.02 -5 3 C-2.25 0 -2.25 0 0 0 Z " fill="#E5E5E5" transform="translate(623,849)"/>
<path d="M0 0 C3.375 0.6875 3.375 0.6875 7 2 C8.4375 4.625 8.4375 4.625 9 7 C5.18315774 5.44499019 2.80804268 2.96404505 0 0 Z " fill="#C2C2C2" transform="translate(866,834)"/>
<path d="M0 0 C2.31 0.33 4.62 0.66 7 1 C6.34 2.32 5.68 3.64 5 5 C3.68 4.67 2.36 4.34 1 4 C1.33 3.34 1.66 2.68 2 2 C1.34 1.34 0.68 0.68 0 0 Z " fill="#D5D5D5" transform="translate(547,785)"/>
<path d="M0 0 C0.99 0.33 1.98 0.66 3 1 C1.25 5.875 1.25 5.875 -1 7 C-1.33 5.35 -1.66 3.7 -2 2 C-1.34 2 -0.68 2 0 2 C0 1.34 0 0.68 0 0 Z " fill="#E6E6E6" transform="translate(798,777)"/>
<path d="M0 0 C-0.3125 1.875 -0.3125 1.875 -1 4 C-1.99 4.66 -2.98 5.32 -4 6 C-4.33 5.01 -4.66 4.02 -5 3 C-2.25 0 -2.25 0 0 0 Z " fill="#DCDCDC" transform="translate(664,757)"/>
<path d="M0 0 C0.99 0.33 1.98 0.66 3 1 C2.34 2.32 1.68 3.64 1 5 C-0.65 5 -2.3 5 -4 5 C-2.68 3.35 -1.36 1.7 0 0 Z " fill="#E3E3E3" transform="translate(977,752)"/>
<path d="M0 0 C0.33 0.66 0.66 1.32 1 2 C1.99 2 2.98 2 4 2 C3.34 3.32 2.68 4.64 2 6 C0.68 5.01 -0.64 4.02 -2 3 C-1.34 2.01 -0.68 1.02 0 0 Z " fill="#E9E9E9" transform="translate(691,723)"/>
<path d="M0 0 C0.99 0.33 1.98 0.66 3 1 C2.33333333 3 1.66666667 5 1 7 C0.01 7 -0.98 7 -2 7 C-1.34 4.69 -0.68 2.38 0 0 Z " fill="#DBDBDB" transform="translate(355,454)"/>
<path d="M0 0 C0.99 0.33 1.98 0.66 3 1 C2.01 2.32 1.02 3.64 0 5 C-1.32 4.34 -2.64 3.68 -4 3 C-2.1875 1.4375 -2.1875 1.4375 0 0 Z " fill="#E1E1E1" transform="translate(488,1075)"/>
<path d="M0 0 C0.66 0.99 1.32 1.98 2 3 C1.67 3.66 1.34 4.32 1 5 C0.34 5 -0.32 5 -1 5 C-1.33 5.99 -1.66 6.98 -2 8 C-2.66 7.67 -3.32 7.34 -4 7 C-2.68 4.69 -1.36 2.38 0 0 Z " fill="#D7D7D7" transform="translate(388,934)"/>
<path d="M0 0 C0.66 0 1.32 0 2 0 C2 0.66 2 1.32 2 2 C1.34 2 0.68 2 0 2 C0 1.34 0 0.68 0 0 Z M-5 1 C-2.525 1.495 -2.525 1.495 0 2 C0 2.99 0 3.98 0 5 C-1.9375 4.6875 -1.9375 4.6875 -4 4 C-4.33 3.01 -4.66 2.02 -5 1 Z " fill="#E8E8E8" transform="translate(931,881)"/>
<path d="M0 0 C2.97 0.495 2.97 0.495 6 1 C5.67 2.32 5.34 3.64 5 5 C4.34 4.67 3.68 4.34 3 4 C2.34 4 1.68 4 1 4 C0.67 2.68 0.34 1.36 0 0 Z " fill="#F5F5F5" transform="translate(993,874)"/>
<path d="M0 0 C1.32 0 2.64 0 4 0 C4 0.66 4 1.32 4 2 C4.99 2.33 5.98 2.66 7 3 C7.33 3.99 7.66 4.98 8 6 C4.63408134 4.55746343 2.48952921 2.66735273 0 0 Z " fill="#CFCFCF" transform="translate(831,805)"/>
<path d="M0 0 C-0.33 0.99 -0.66 1.98 -1 3 C-4.5625 4.1875 -4.5625 4.1875 -8 5 C-5.72541886 1.64228499 -4.30291326 0 0 0 Z " fill="#DEDEDE" transform="translate(682,787)"/>
<path d="M0 0 C0.66 0.33 1.32 0.66 2 1 C2 1.99 2 2.98 2 4 C1.01 4.66 0.02 5.32 -1 6 C-1.66 4.68 -2.32 3.36 -3 2 C-2.01 1.34 -1.02 0.68 0 0 Z " fill="#DADADA" transform="translate(700,716)"/>
<path d="M0 0 C0.99 0.66 1.98 1.32 3 2 C2.67 3.32 2.34 4.64 2 6 C0.68 5.01 -0.64 4.02 -2 3 C-1 1 -1 1 0 0 Z " fill="#E6E6E6" transform="translate(666,681)"/>
<path d="M0 0 C1.32 0.33 2.64 0.66 4 1 C2.84826645 3.46800047 1.95216435 5.04783565 0 7 C0 4.69 0 2.38 0 0 Z " fill="#E7E7E7" transform="translate(681,665)"/>
<path d="M0 0 C0.33 1.32 0.66 2.64 1 4 C-1.97 6.475 -1.97 6.475 -5 9 C-5 4.61031544 -2.87194899 3.23094261 0 0 Z " fill="#1A1A1A" transform="translate(834,504)"/>
<path d="M0 0 C1.65 0 3.3 0 5 0 C5.33 0.99 5.66 1.98 6 3 C5.34 3.66 4.68 4.32 4 5 C2.68 3.35 1.36 1.7 0 0 Z " fill="#D4D4D4" transform="translate(746,374)"/>
<path d="M0 0 C1.875 0.3125 1.875 0.3125 4 1 C4.66 1.99 5.32 2.98 6 4 C4.68 4.33 3.36 4.66 2 5 C1.34 3.35 0.68 1.7 0 0 Z " fill="#E9E9E9" transform="translate(696,370)"/>
<path d="M0 0 C1.98 1.65 3.96 3.3 6 5 C5.34 5.66 4.68 6.32 4 7 C2 5.1875 2 5.1875 0 3 C0 2.01 0 1.02 0 0 Z " fill="#DDDDDD" transform="translate(616,291)"/>
<path d="M0 0 C2 0.25 2 0.25 4 1 C4.33 1.99 4.66 2.98 5 4 C4.01 4.33 3.02 4.66 2 5 C1.01 3.68 0.02 2.36 -1 1 C-0.67 0.67 -0.34 0.34 0 0 Z " fill="#E1E1E1" transform="translate(587,219)"/>
</svg>
